M48
;DRILL file {KiCad 4.0.7} date 02/16/18 07:03:40
;FORMAT={-:-/ absolute / metric / decimal}
FMAT,2
METRIC,TZ
T1C0.800
T2C0.813
T3C1.000
T4C1.100
T5C1.520
%
G90
G05
M71
T1
X78.74Y-85.09
X86.36Y-85.09
X103.77Y-68.83
X103.77Y-76.45
X115.57Y-78.74
X115.57Y-86.36
X121.92Y-76.2
X121.92Y-83.82
X125.73Y-76.2
X125.73Y-83.82
X129.54Y-58.42
X129.54Y-77.47
X129.54Y-85.09
X132.08Y-62.23
X133.35Y-49.53
X133.35Y-68.58
X135.35Y-49.53
X135.89Y-77.47
X135.89Y-85.09
X137.16Y-58.42
X137.35Y-49.53
X139.35Y-49.53
X139.7Y-62.23
X140.97Y-68.58
X141.35Y-49.53
T2
X74.93Y-92.71
X74.93Y-97.71
X87.43Y-92.71
X87.43Y-97.71
X92.71Y-92.71
X92.71Y-97.71
X105.21Y-92.71
X105.21Y-97.71
X110.49Y-92.71
X110.49Y-97.71
X122.99Y-92.71
X122.99Y-97.71
X128.27Y-92.71
X128.27Y-97.71
X140.77Y-92.71
X140.77Y-97.71
T3
X76.328Y-63.104
X76.328Y-65.644
X76.328Y-68.184
X76.328Y-70.724
X76.328Y-73.264
X76.328Y-75.804
X87.63Y-55.88
X87.63Y-81.28
X90.17Y-55.88
X90.17Y-81.28
X92.71Y-55.88
X92.71Y-81.28
X95.25Y-55.88
X95.25Y-81.28
X97.79Y-55.88
X97.79Y-81.28
X100.33Y-55.88
X100.33Y-81.28
X102.87Y-55.88
X102.87Y-81.28
X105.41Y-55.88
X105.41Y-81.28
X107.95Y-55.88
X107.95Y-81.28
X110.49Y-55.88
X110.49Y-81.28
X113.03Y-55.88
X115.57Y-55.88
X118.11Y-55.88
X120.65Y-55.88
X123.19Y-55.88
X125.73Y-55.88
T4
X77.96Y-93.04
X77.96Y-97.54
X84.46Y-93.04
X84.46Y-97.54
X95.69Y-92.98
X95.69Y-97.48
X102.19Y-92.98
X102.19Y-97.48
X113.51Y-92.98
X113.51Y-97.48
X120.01Y-92.98
X120.01Y-97.48
X131.22Y-92.95
X131.22Y-97.45
X137.72Y-92.95
X137.72Y-97.45
T5
X73.73Y-51.2
X78.81Y-51.2
T0
M30
