G04 #@! TF.FileFunction,Legend,Top*
%FSLAX46Y46*%
G04 Gerber Fmt 4.6, Leading zero omitted, Abs format (unit mm)*
G04 Created by KiCad (PCBNEW 4.0.7) date 02/16/18 07:03:29*
%MOMM*%
%LPD*%
G01*
G04 APERTURE LIST*
%ADD10C,0.100000*%
%ADD11C,0.300000*%
%ADD12C,0.120000*%
%ADD13C,0.150000*%
G04 APERTURE END LIST*
D10*
D11*
X73585715Y-47188571D02*
X72871429Y-47188571D01*
X72800000Y-47902857D01*
X72871429Y-47831429D01*
X73014286Y-47760000D01*
X73371429Y-47760000D01*
X73514286Y-47831429D01*
X73585715Y-47902857D01*
X73657143Y-48045714D01*
X73657143Y-48402857D01*
X73585715Y-48545714D01*
X73514286Y-48617143D01*
X73371429Y-48688571D01*
X73014286Y-48688571D01*
X72871429Y-48617143D01*
X72800000Y-48545714D01*
X74157143Y-47688571D02*
X74514286Y-48688571D01*
X74871428Y-47688571D01*
X77817143Y-47190000D02*
X77674286Y-47118571D01*
X77460000Y-47118571D01*
X77245715Y-47190000D01*
X77102857Y-47332857D01*
X77031429Y-47475714D01*
X76960000Y-47761429D01*
X76960000Y-47975714D01*
X77031429Y-48261429D01*
X77102857Y-48404286D01*
X77245715Y-48547143D01*
X77460000Y-48618571D01*
X77602857Y-48618571D01*
X77817143Y-48547143D01*
X77888572Y-48475714D01*
X77888572Y-47975714D01*
X77602857Y-47975714D01*
X78531429Y-48618571D02*
X78531429Y-47118571D01*
X79388572Y-48618571D01*
X79388572Y-47118571D01*
X80102858Y-48618571D02*
X80102858Y-47118571D01*
X80460001Y-47118571D01*
X80674286Y-47190000D01*
X80817144Y-47332857D01*
X80888572Y-47475714D01*
X80960001Y-47761429D01*
X80960001Y-47975714D01*
X80888572Y-48261429D01*
X80817144Y-48404286D01*
X80674286Y-48547143D01*
X80460001Y-48618571D01*
X80102858Y-48618571D01*
X72954286Y-100830000D02*
X72811429Y-100758571D01*
X72597143Y-100758571D01*
X72382858Y-100830000D01*
X72240000Y-100972857D01*
X72168572Y-101115714D01*
X72097143Y-101401429D01*
X72097143Y-101615714D01*
X72168572Y-101901429D01*
X72240000Y-102044286D01*
X72382858Y-102187143D01*
X72597143Y-102258571D01*
X72740000Y-102258571D01*
X72954286Y-102187143D01*
X73025715Y-102115714D01*
X73025715Y-101615714D01*
X72740000Y-101615714D01*
X73668572Y-102258571D02*
X73668572Y-101258571D01*
X73668572Y-101544286D02*
X73740000Y-101401429D01*
X73811429Y-101330000D01*
X73954286Y-101258571D01*
X74097143Y-101258571D01*
X74597143Y-102258571D02*
X74597143Y-100758571D01*
X74597143Y-101330000D02*
X74740000Y-101258571D01*
X75025714Y-101258571D01*
X75168571Y-101330000D01*
X75240000Y-101401429D01*
X75311429Y-101544286D01*
X75311429Y-101972857D01*
X75240000Y-102115714D01*
X75168571Y-102187143D01*
X75025714Y-102258571D01*
X74740000Y-102258571D01*
X74597143Y-102187143D01*
X76168572Y-102258571D02*
X76025714Y-102187143D01*
X75954286Y-102044286D01*
X75954286Y-100758571D01*
X78740000Y-102115714D02*
X78668571Y-102187143D01*
X78454285Y-102258571D01*
X78311428Y-102258571D01*
X78097143Y-102187143D01*
X77954285Y-102044286D01*
X77882857Y-101901429D01*
X77811428Y-101615714D01*
X77811428Y-101401429D01*
X77882857Y-101115714D01*
X77954285Y-100972857D01*
X78097143Y-100830000D01*
X78311428Y-100758571D01*
X78454285Y-100758571D01*
X78668571Y-100830000D01*
X78740000Y-100901429D01*
X79597143Y-102258571D02*
X79454285Y-102187143D01*
X79382857Y-102115714D01*
X79311428Y-101972857D01*
X79311428Y-101544286D01*
X79382857Y-101401429D01*
X79454285Y-101330000D01*
X79597143Y-101258571D01*
X79811428Y-101258571D01*
X79954285Y-101330000D01*
X80025714Y-101401429D01*
X80097143Y-101544286D01*
X80097143Y-101972857D01*
X80025714Y-102115714D01*
X79954285Y-102187143D01*
X79811428Y-102258571D01*
X79597143Y-102258571D01*
X80740000Y-102258571D02*
X80740000Y-101258571D01*
X80740000Y-101401429D02*
X80811428Y-101330000D01*
X80954286Y-101258571D01*
X81168571Y-101258571D01*
X81311428Y-101330000D01*
X81382857Y-101472857D01*
X81382857Y-102258571D01*
X81382857Y-101472857D02*
X81454286Y-101330000D01*
X81597143Y-101258571D01*
X81811428Y-101258571D01*
X81954286Y-101330000D01*
X82025714Y-101472857D01*
X82025714Y-102258571D01*
X82740000Y-102258571D02*
X82740000Y-101258571D01*
X82740000Y-101401429D02*
X82811428Y-101330000D01*
X82954286Y-101258571D01*
X83168571Y-101258571D01*
X83311428Y-101330000D01*
X83382857Y-101472857D01*
X83382857Y-102258571D01*
X83382857Y-101472857D02*
X83454286Y-101330000D01*
X83597143Y-101258571D01*
X83811428Y-101258571D01*
X83954286Y-101330000D01*
X84025714Y-101472857D01*
X84025714Y-102258571D01*
X85382857Y-102258571D02*
X85382857Y-101472857D01*
X85311428Y-101330000D01*
X85168571Y-101258571D01*
X84882857Y-101258571D01*
X84740000Y-101330000D01*
X85382857Y-102187143D02*
X85240000Y-102258571D01*
X84882857Y-102258571D01*
X84740000Y-102187143D01*
X84668571Y-102044286D01*
X84668571Y-101901429D01*
X84740000Y-101758571D01*
X84882857Y-101687143D01*
X85240000Y-101687143D01*
X85382857Y-101615714D01*
X86097143Y-101258571D02*
X86097143Y-102258571D01*
X86097143Y-101401429D02*
X86168571Y-101330000D01*
X86311429Y-101258571D01*
X86525714Y-101258571D01*
X86668571Y-101330000D01*
X86740000Y-101472857D01*
X86740000Y-102258571D01*
X88097143Y-102258571D02*
X88097143Y-100758571D01*
X88097143Y-102187143D02*
X87954286Y-102258571D01*
X87668572Y-102258571D01*
X87525714Y-102187143D01*
X87454286Y-102115714D01*
X87382857Y-101972857D01*
X87382857Y-101544286D01*
X87454286Y-101401429D01*
X87525714Y-101330000D01*
X87668572Y-101258571D01*
X87954286Y-101258571D01*
X88097143Y-101330000D01*
X89382857Y-102187143D02*
X89240000Y-102258571D01*
X88954286Y-102258571D01*
X88811429Y-102187143D01*
X88740000Y-102044286D01*
X88740000Y-101472857D01*
X88811429Y-101330000D01*
X88954286Y-101258571D01*
X89240000Y-101258571D01*
X89382857Y-101330000D01*
X89454286Y-101472857D01*
X89454286Y-101615714D01*
X88740000Y-101758571D01*
X90097143Y-102258571D02*
X90097143Y-101258571D01*
X90097143Y-101544286D02*
X90168571Y-101401429D01*
X90240000Y-101330000D01*
X90382857Y-101258571D01*
X90525714Y-101258571D01*
X140148571Y-54482857D02*
X140148571Y-53625714D01*
X141648571Y-54054285D02*
X140148571Y-54054285D01*
X140148571Y-53268571D02*
X141648571Y-52268571D01*
X140148571Y-52268571D02*
X141648571Y-53268571D01*
X139108571Y-53589999D02*
X138394286Y-54089999D01*
X139108571Y-54447142D02*
X137608571Y-54447142D01*
X137608571Y-53875714D01*
X137680000Y-53732856D01*
X137751429Y-53661428D01*
X137894286Y-53589999D01*
X138108571Y-53589999D01*
X138251429Y-53661428D01*
X138322857Y-53732856D01*
X138394286Y-53875714D01*
X138394286Y-54447142D01*
X137608571Y-53089999D02*
X139108571Y-52089999D01*
X137608571Y-52089999D02*
X139108571Y-53089999D01*
X132600000Y-54482857D02*
X132528571Y-54625714D01*
X132528571Y-54840000D01*
X132600000Y-55054285D01*
X132742857Y-55197143D01*
X132885714Y-55268571D01*
X133171429Y-55340000D01*
X133385714Y-55340000D01*
X133671429Y-55268571D01*
X133814286Y-55197143D01*
X133957143Y-55054285D01*
X134028571Y-54840000D01*
X134028571Y-54697143D01*
X133957143Y-54482857D01*
X133885714Y-54411428D01*
X133385714Y-54411428D01*
X133385714Y-54697143D01*
X134028571Y-53768571D02*
X132528571Y-53768571D01*
X134028571Y-52911428D01*
X132528571Y-52911428D01*
X134028571Y-52197142D02*
X132528571Y-52197142D01*
X132528571Y-51839999D01*
X132600000Y-51625714D01*
X132742857Y-51482856D01*
X132885714Y-51411428D01*
X133171429Y-51339999D01*
X133385714Y-51339999D01*
X133671429Y-51411428D01*
X133814286Y-51482856D01*
X133957143Y-51625714D01*
X134028571Y-51839999D01*
X134028571Y-52197142D01*
X135068571Y-53554285D02*
X135068571Y-54268571D01*
X135782857Y-54340000D01*
X135711429Y-54268571D01*
X135640000Y-54125714D01*
X135640000Y-53768571D01*
X135711429Y-53625714D01*
X135782857Y-53554285D01*
X135925714Y-53482857D01*
X136282857Y-53482857D01*
X136425714Y-53554285D01*
X136497143Y-53625714D01*
X136568571Y-53768571D01*
X136568571Y-54125714D01*
X136497143Y-54268571D01*
X136425714Y-54340000D01*
X135568571Y-52982857D02*
X136568571Y-52625714D01*
X135568571Y-52268572D01*
X80455624Y-75073547D02*
X80312767Y-75002118D01*
X80098481Y-75002118D01*
X79884196Y-75073547D01*
X79741338Y-75216404D01*
X79669910Y-75359261D01*
X79598481Y-75644976D01*
X79598481Y-75859261D01*
X79669910Y-76144976D01*
X79741338Y-76287833D01*
X79884196Y-76430690D01*
X80098481Y-76502118D01*
X80241338Y-76502118D01*
X80455624Y-76430690D01*
X80527053Y-76359261D01*
X80527053Y-75859261D01*
X80241338Y-75859261D01*
X81169910Y-76502118D02*
X81169910Y-75002118D01*
X82027053Y-76502118D01*
X82027053Y-75002118D01*
X82741339Y-76502118D02*
X82741339Y-75002118D01*
X83098482Y-75002118D01*
X83312767Y-75073547D01*
X83455625Y-75216404D01*
X83527053Y-75359261D01*
X83598482Y-75644976D01*
X83598482Y-75859261D01*
X83527053Y-76144976D01*
X83455625Y-76287833D01*
X83312767Y-76430690D01*
X83098482Y-76502118D01*
X82741339Y-76502118D01*
X79598481Y-72462118D02*
X80098481Y-73962118D01*
X80598481Y-72462118D01*
X81955624Y-73819261D02*
X81884195Y-73890690D01*
X81669909Y-73962118D01*
X81527052Y-73962118D01*
X81312767Y-73890690D01*
X81169909Y-73747833D01*
X81098481Y-73604976D01*
X81027052Y-73319261D01*
X81027052Y-73104976D01*
X81098481Y-72819261D01*
X81169909Y-72676404D01*
X81312767Y-72533547D01*
X81527052Y-72462118D01*
X81669909Y-72462118D01*
X81884195Y-72533547D01*
X81955624Y-72604976D01*
X83455624Y-73819261D02*
X83384195Y-73890690D01*
X83169909Y-73962118D01*
X83027052Y-73962118D01*
X82812767Y-73890690D01*
X82669909Y-73747833D01*
X82598481Y-73604976D01*
X82527052Y-73319261D01*
X82527052Y-73104976D01*
X82598481Y-72819261D01*
X82669909Y-72676404D01*
X82812767Y-72533547D01*
X83027052Y-72462118D01*
X83169909Y-72462118D01*
X83384195Y-72533547D01*
X83455624Y-72604976D01*
X79241338Y-71422118D02*
X79241338Y-69922118D01*
X79741338Y-70993547D01*
X80241338Y-69922118D01*
X80241338Y-71422118D01*
X80955624Y-71422118D02*
X80955624Y-69922118D01*
X81598481Y-71350690D02*
X81812767Y-71422118D01*
X82169910Y-71422118D01*
X82312767Y-71350690D01*
X82384196Y-71279261D01*
X82455624Y-71136404D01*
X82455624Y-70993547D01*
X82384196Y-70850690D01*
X82312767Y-70779261D01*
X82169910Y-70707833D01*
X81884196Y-70636404D01*
X81741338Y-70564976D01*
X81669910Y-70493547D01*
X81598481Y-70350690D01*
X81598481Y-70207833D01*
X81669910Y-70064976D01*
X81741338Y-69993547D01*
X81884196Y-69922118D01*
X82241338Y-69922118D01*
X82455624Y-69993547D01*
X83384195Y-69922118D02*
X83669909Y-69922118D01*
X83812767Y-69993547D01*
X83955624Y-70136404D01*
X84027052Y-70422118D01*
X84027052Y-70922118D01*
X83955624Y-71207833D01*
X83812767Y-71350690D01*
X83669909Y-71422118D01*
X83384195Y-71422118D01*
X83241338Y-71350690D01*
X83098481Y-71207833D01*
X83027052Y-70922118D01*
X83027052Y-70422118D01*
X83098481Y-70136404D01*
X83241338Y-69993547D01*
X83384195Y-69922118D01*
X79241338Y-68882118D02*
X79241338Y-67382118D01*
X79741338Y-68453547D01*
X80241338Y-67382118D01*
X80241338Y-68882118D01*
X81241338Y-67382118D02*
X81527052Y-67382118D01*
X81669910Y-67453547D01*
X81812767Y-67596404D01*
X81884195Y-67882118D01*
X81884195Y-68382118D01*
X81812767Y-68667833D01*
X81669910Y-68810690D01*
X81527052Y-68882118D01*
X81241338Y-68882118D01*
X81098481Y-68810690D01*
X80955624Y-68667833D01*
X80884195Y-68382118D01*
X80884195Y-67882118D01*
X80955624Y-67596404D01*
X81098481Y-67453547D01*
X81241338Y-67382118D01*
X82455624Y-68810690D02*
X82669910Y-68882118D01*
X83027053Y-68882118D01*
X83169910Y-68810690D01*
X83241339Y-68739261D01*
X83312767Y-68596404D01*
X83312767Y-68453547D01*
X83241339Y-68310690D01*
X83169910Y-68239261D01*
X83027053Y-68167833D01*
X82741339Y-68096404D01*
X82598481Y-68024976D01*
X82527053Y-67953547D01*
X82455624Y-67810690D01*
X82455624Y-67667833D01*
X82527053Y-67524976D01*
X82598481Y-67453547D01*
X82741339Y-67382118D01*
X83098481Y-67382118D01*
X83312767Y-67453547D01*
X83955624Y-68882118D02*
X83955624Y-67382118D01*
X79669910Y-66270690D02*
X79884196Y-66342118D01*
X80241339Y-66342118D01*
X80384196Y-66270690D01*
X80455625Y-66199261D01*
X80527053Y-66056404D01*
X80527053Y-65913547D01*
X80455625Y-65770690D01*
X80384196Y-65699261D01*
X80241339Y-65627833D01*
X79955625Y-65556404D01*
X79812767Y-65484976D01*
X79741339Y-65413547D01*
X79669910Y-65270690D01*
X79669910Y-65127833D01*
X79741339Y-64984976D01*
X79812767Y-64913547D01*
X79955625Y-64842118D01*
X80312767Y-64842118D01*
X80527053Y-64913547D01*
X82027053Y-66199261D02*
X81955624Y-66270690D01*
X81741338Y-66342118D01*
X81598481Y-66342118D01*
X81384196Y-66270690D01*
X81241338Y-66127833D01*
X81169910Y-65984976D01*
X81098481Y-65699261D01*
X81098481Y-65484976D01*
X81169910Y-65199261D01*
X81241338Y-65056404D01*
X81384196Y-64913547D01*
X81598481Y-64842118D01*
X81741338Y-64842118D01*
X81955624Y-64913547D01*
X82027053Y-64984976D01*
X82669910Y-66342118D02*
X82669910Y-64842118D01*
X83527053Y-66342118D02*
X82884196Y-65484976D01*
X83527053Y-64842118D02*
X82669910Y-65699261D01*
X81348482Y-63659261D02*
X81277053Y-63730690D01*
X81062767Y-63802118D01*
X80919910Y-63802118D01*
X80705625Y-63730690D01*
X80562767Y-63587833D01*
X80491339Y-63444976D01*
X80419910Y-63159261D01*
X80419910Y-62944976D01*
X80491339Y-62659261D01*
X80562767Y-62516404D01*
X80705625Y-62373547D01*
X80919910Y-62302118D01*
X81062767Y-62302118D01*
X81277053Y-62373547D01*
X81348482Y-62444976D01*
X81919910Y-63730690D02*
X82134196Y-63802118D01*
X82491339Y-63802118D01*
X82634196Y-63730690D01*
X82705625Y-63659261D01*
X82777053Y-63516404D01*
X82777053Y-63373547D01*
X82705625Y-63230690D01*
X82634196Y-63159261D01*
X82491339Y-63087833D01*
X82205625Y-63016404D01*
X82062767Y-62944976D01*
X81991339Y-62873547D01*
X81919910Y-62730690D01*
X81919910Y-62587833D01*
X81991339Y-62444976D01*
X82062767Y-62373547D01*
X82205625Y-62302118D01*
X82562767Y-62302118D01*
X82777053Y-62373547D01*
X88237143Y-79291428D02*
X88308571Y-79077142D01*
X88308571Y-78719999D01*
X88237143Y-78577142D01*
X88165714Y-78505713D01*
X88022857Y-78434285D01*
X87880000Y-78434285D01*
X87737143Y-78505713D01*
X87665714Y-78577142D01*
X87594286Y-78719999D01*
X87522857Y-79005713D01*
X87451429Y-79148571D01*
X87380000Y-79219999D01*
X87237143Y-79291428D01*
X87094286Y-79291428D01*
X86951429Y-79219999D01*
X86880000Y-79148571D01*
X86808571Y-79005713D01*
X86808571Y-78648571D01*
X86880000Y-78434285D01*
X86808571Y-78005714D02*
X88308571Y-77505714D01*
X86808571Y-77005714D01*
X88308571Y-76505714D02*
X86808571Y-76505714D01*
X86808571Y-75934286D01*
X86880000Y-75791428D01*
X86951429Y-75720000D01*
X87094286Y-75648571D01*
X87308571Y-75648571D01*
X87451429Y-75720000D01*
X87522857Y-75791428D01*
X87594286Y-75934286D01*
X87594286Y-76505714D01*
X89491429Y-78612857D02*
X89420000Y-78541428D01*
X89348571Y-78398571D01*
X89348571Y-78041428D01*
X89420000Y-77898571D01*
X89491429Y-77827142D01*
X89634286Y-77755714D01*
X89777143Y-77755714D01*
X89991429Y-77827142D01*
X90848571Y-78684285D01*
X90848571Y-77755714D01*
X89348571Y-76398571D02*
X89348571Y-77112857D01*
X90062857Y-77184286D01*
X89991429Y-77112857D01*
X89920000Y-76970000D01*
X89920000Y-76612857D01*
X89991429Y-76470000D01*
X90062857Y-76398571D01*
X90205714Y-76327143D01*
X90562857Y-76327143D01*
X90705714Y-76398571D01*
X90777143Y-76470000D01*
X90848571Y-76612857D01*
X90848571Y-76970000D01*
X90777143Y-77112857D01*
X90705714Y-77184286D01*
X92031429Y-78612857D02*
X91960000Y-78541428D01*
X91888571Y-78398571D01*
X91888571Y-78041428D01*
X91960000Y-77898571D01*
X92031429Y-77827142D01*
X92174286Y-77755714D01*
X92317143Y-77755714D01*
X92531429Y-77827142D01*
X93388571Y-78684285D01*
X93388571Y-77755714D01*
X91888571Y-76470000D02*
X91888571Y-76755714D01*
X91960000Y-76898571D01*
X92031429Y-76970000D01*
X92245714Y-77112857D01*
X92531429Y-77184286D01*
X93102857Y-77184286D01*
X93245714Y-77112857D01*
X93317143Y-77041429D01*
X93388571Y-76898571D01*
X93388571Y-76612857D01*
X93317143Y-76470000D01*
X93245714Y-76398571D01*
X93102857Y-76327143D01*
X92745714Y-76327143D01*
X92602857Y-76398571D01*
X92531429Y-76470000D01*
X92460000Y-76612857D01*
X92460000Y-76898571D01*
X92531429Y-77041429D01*
X92602857Y-77112857D01*
X92745714Y-77184286D01*
X98325714Y-78612857D02*
X98397143Y-78684286D01*
X98468571Y-78898572D01*
X98468571Y-79041429D01*
X98397143Y-79255714D01*
X98254286Y-79398572D01*
X98111429Y-79470000D01*
X97825714Y-79541429D01*
X97611429Y-79541429D01*
X97325714Y-79470000D01*
X97182857Y-79398572D01*
X97040000Y-79255714D01*
X96968571Y-79041429D01*
X96968571Y-78898572D01*
X97040000Y-78684286D01*
X97111429Y-78612857D01*
X98468571Y-77970000D02*
X96968571Y-77970000D01*
X98040000Y-77470000D01*
X96968571Y-76970000D01*
X98468571Y-76970000D01*
X98468571Y-76255714D02*
X96968571Y-76255714D01*
X96968571Y-75898571D01*
X97040000Y-75684286D01*
X97182857Y-75541428D01*
X97325714Y-75470000D01*
X97611429Y-75398571D01*
X97825714Y-75398571D01*
X98111429Y-75470000D01*
X98254286Y-75541428D01*
X98397143Y-75684286D01*
X98468571Y-75898571D01*
X98468571Y-76255714D01*
X100937143Y-79362857D02*
X101008571Y-79148571D01*
X101008571Y-78791428D01*
X100937143Y-78648571D01*
X100865714Y-78577142D01*
X100722857Y-78505714D01*
X100580000Y-78505714D01*
X100437143Y-78577142D01*
X100365714Y-78648571D01*
X100294286Y-78791428D01*
X100222857Y-79077142D01*
X100151429Y-79220000D01*
X100080000Y-79291428D01*
X99937143Y-79362857D01*
X99794286Y-79362857D01*
X99651429Y-79291428D01*
X99580000Y-79220000D01*
X99508571Y-79077142D01*
X99508571Y-78720000D01*
X99580000Y-78505714D01*
X101008571Y-77862857D02*
X99508571Y-77862857D01*
X99508571Y-77505714D01*
X99580000Y-77291429D01*
X99722857Y-77148571D01*
X99865714Y-77077143D01*
X100151429Y-77005714D01*
X100365714Y-77005714D01*
X100651429Y-77077143D01*
X100794286Y-77148571D01*
X100937143Y-77291429D01*
X101008571Y-77505714D01*
X101008571Y-77862857D01*
X99508571Y-76077143D02*
X99508571Y-75934286D01*
X99580000Y-75791429D01*
X99651429Y-75720000D01*
X99794286Y-75648571D01*
X100080000Y-75577143D01*
X100437143Y-75577143D01*
X100722857Y-75648571D01*
X100865714Y-75720000D01*
X100937143Y-75791429D01*
X101008571Y-75934286D01*
X101008571Y-76077143D01*
X100937143Y-76220000D01*
X100865714Y-76291429D01*
X100722857Y-76362857D01*
X100437143Y-76434286D01*
X100080000Y-76434286D01*
X99794286Y-76362857D01*
X99651429Y-76291429D01*
X99580000Y-76220000D01*
X99508571Y-76077143D01*
X103405714Y-78362857D02*
X103477143Y-78434286D01*
X103548571Y-78648572D01*
X103548571Y-78791429D01*
X103477143Y-79005714D01*
X103334286Y-79148572D01*
X103191429Y-79220000D01*
X102905714Y-79291429D01*
X102691429Y-79291429D01*
X102405714Y-79220000D01*
X102262857Y-79148572D01*
X102120000Y-79005714D01*
X102048571Y-78791429D01*
X102048571Y-78648572D01*
X102120000Y-78434286D01*
X102191429Y-78362857D01*
X103548571Y-77005714D02*
X103548571Y-77720000D01*
X102048571Y-77720000D01*
X103548571Y-76505714D02*
X102048571Y-76505714D01*
X103548571Y-75648571D02*
X102691429Y-76291428D01*
X102048571Y-75648571D02*
X102905714Y-76505714D01*
X104588571Y-79327142D02*
X104588571Y-78398571D01*
X105160000Y-78898571D01*
X105160000Y-78684285D01*
X105231429Y-78541428D01*
X105302857Y-78469999D01*
X105445714Y-78398571D01*
X105802857Y-78398571D01*
X105945714Y-78469999D01*
X106017143Y-78541428D01*
X106088571Y-78684285D01*
X106088571Y-79112857D01*
X106017143Y-79255714D01*
X105945714Y-79327142D01*
X104588571Y-77970000D02*
X106088571Y-77470000D01*
X104588571Y-76970000D01*
X104588571Y-76612857D02*
X104588571Y-75684286D01*
X105160000Y-76184286D01*
X105160000Y-75970000D01*
X105231429Y-75827143D01*
X105302857Y-75755714D01*
X105445714Y-75684286D01*
X105802857Y-75684286D01*
X105945714Y-75755714D01*
X106017143Y-75827143D01*
X106088571Y-75970000D01*
X106088571Y-76398572D01*
X106017143Y-76541429D01*
X105945714Y-76612857D01*
X107200000Y-78612857D02*
X107128571Y-78755714D01*
X107128571Y-78970000D01*
X107200000Y-79184285D01*
X107342857Y-79327143D01*
X107485714Y-79398571D01*
X107771429Y-79470000D01*
X107985714Y-79470000D01*
X108271429Y-79398571D01*
X108414286Y-79327143D01*
X108557143Y-79184285D01*
X108628571Y-78970000D01*
X108628571Y-78827143D01*
X108557143Y-78612857D01*
X108485714Y-78541428D01*
X107985714Y-78541428D01*
X107985714Y-78827143D01*
X108628571Y-77898571D02*
X107128571Y-77898571D01*
X108628571Y-77041428D01*
X107128571Y-77041428D01*
X108628571Y-76327142D02*
X107128571Y-76327142D01*
X107128571Y-75969999D01*
X107200000Y-75755714D01*
X107342857Y-75612856D01*
X107485714Y-75541428D01*
X107771429Y-75469999D01*
X107985714Y-75469999D01*
X108271429Y-75541428D01*
X108414286Y-75612856D01*
X108557143Y-75755714D01*
X108628571Y-75969999D01*
X108628571Y-76327142D01*
X109668571Y-77755713D02*
X109668571Y-78469999D01*
X110382857Y-78541428D01*
X110311429Y-78469999D01*
X110240000Y-78327142D01*
X110240000Y-77969999D01*
X110311429Y-77827142D01*
X110382857Y-77755713D01*
X110525714Y-77684285D01*
X110882857Y-77684285D01*
X111025714Y-77755713D01*
X111097143Y-77827142D01*
X111168571Y-77969999D01*
X111168571Y-78327142D01*
X111097143Y-78469999D01*
X111025714Y-78541428D01*
X109668571Y-77255714D02*
X111168571Y-76755714D01*
X109668571Y-76255714D01*
X88237143Y-52657143D02*
X88308571Y-52442857D01*
X88308571Y-52085714D01*
X88237143Y-51942857D01*
X88165714Y-51871428D01*
X88022857Y-51800000D01*
X87880000Y-51800000D01*
X87737143Y-51871428D01*
X87665714Y-51942857D01*
X87594286Y-52085714D01*
X87522857Y-52371428D01*
X87451429Y-52514286D01*
X87380000Y-52585714D01*
X87237143Y-52657143D01*
X87094286Y-52657143D01*
X86951429Y-52585714D01*
X86880000Y-52514286D01*
X86808571Y-52371428D01*
X86808571Y-52014286D01*
X86880000Y-51800000D01*
X86808571Y-51371429D02*
X88308571Y-50871429D01*
X86808571Y-50371429D01*
X88308571Y-49871429D02*
X86808571Y-49871429D01*
X88308571Y-49014286D01*
X86808571Y-49014286D01*
X90848571Y-51085714D02*
X90848571Y-51942857D01*
X90848571Y-51514285D02*
X89348571Y-51514285D01*
X89562857Y-51657142D01*
X89705714Y-51800000D01*
X89777143Y-51942857D01*
X89348571Y-49800000D02*
X89348571Y-50085714D01*
X89420000Y-50228571D01*
X89491429Y-50300000D01*
X89705714Y-50442857D01*
X89991429Y-50514286D01*
X90562857Y-50514286D01*
X90705714Y-50442857D01*
X90777143Y-50371429D01*
X90848571Y-50228571D01*
X90848571Y-49942857D01*
X90777143Y-49800000D01*
X90705714Y-49728571D01*
X90562857Y-49657143D01*
X90205714Y-49657143D01*
X90062857Y-49728571D01*
X89991429Y-49800000D01*
X89920000Y-49942857D01*
X89920000Y-50228571D01*
X89991429Y-50371429D01*
X90062857Y-50442857D01*
X90205714Y-50514286D01*
X91888571Y-50442856D02*
X91888571Y-51157142D01*
X92602857Y-51228571D01*
X92531429Y-51157142D01*
X92460000Y-51014285D01*
X92460000Y-50657142D01*
X92531429Y-50514285D01*
X92602857Y-50442856D01*
X92745714Y-50371428D01*
X93102857Y-50371428D01*
X93245714Y-50442856D01*
X93317143Y-50514285D01*
X93388571Y-50657142D01*
X93388571Y-51014285D01*
X93317143Y-51157142D01*
X93245714Y-51228571D01*
X94928571Y-50514285D02*
X95928571Y-50514285D01*
X94357143Y-50871428D02*
X95428571Y-51228571D01*
X95428571Y-50299999D01*
X96968571Y-50871428D02*
X96968571Y-50728571D01*
X97040000Y-50585714D01*
X97111429Y-50514285D01*
X97254286Y-50442856D01*
X97540000Y-50371428D01*
X97897143Y-50371428D01*
X98182857Y-50442856D01*
X98325714Y-50514285D01*
X98397143Y-50585714D01*
X98468571Y-50728571D01*
X98468571Y-50871428D01*
X98397143Y-51014285D01*
X98325714Y-51085714D01*
X98182857Y-51157142D01*
X97897143Y-51228571D01*
X97540000Y-51228571D01*
X97254286Y-51157142D01*
X97111429Y-51085714D01*
X97040000Y-51014285D01*
X96968571Y-50871428D01*
X99651429Y-51228571D02*
X99580000Y-51157142D01*
X99508571Y-51014285D01*
X99508571Y-50657142D01*
X99580000Y-50514285D01*
X99651429Y-50442856D01*
X99794286Y-50371428D01*
X99937143Y-50371428D01*
X100151429Y-50442856D01*
X101008571Y-51299999D01*
X101008571Y-50371428D01*
X103548571Y-51085714D02*
X103548571Y-51942857D01*
X103548571Y-51514285D02*
X102048571Y-51514285D01*
X102262857Y-51657142D01*
X102405714Y-51800000D01*
X102477143Y-51942857D01*
X102548571Y-49800000D02*
X103548571Y-49800000D01*
X101977143Y-50157143D02*
X103048571Y-50514286D01*
X103048571Y-49585714D01*
X106088571Y-51085714D02*
X106088571Y-51942857D01*
X106088571Y-51514285D02*
X104588571Y-51514285D01*
X104802857Y-51657142D01*
X104945714Y-51800000D01*
X105017143Y-51942857D01*
X104731429Y-50514286D02*
X104660000Y-50442857D01*
X104588571Y-50300000D01*
X104588571Y-49942857D01*
X104660000Y-49800000D01*
X104731429Y-49728571D01*
X104874286Y-49657143D01*
X105017143Y-49657143D01*
X105231429Y-49728571D01*
X106088571Y-50585714D01*
X106088571Y-49657143D01*
X108628571Y-51085714D02*
X108628571Y-51942857D01*
X108628571Y-51514285D02*
X107128571Y-51514285D01*
X107342857Y-51657142D01*
X107485714Y-51800000D01*
X107557143Y-51942857D01*
X107128571Y-50585714D02*
X107128571Y-49657143D01*
X107700000Y-50157143D01*
X107700000Y-49942857D01*
X107771429Y-49800000D01*
X107842857Y-49728571D01*
X107985714Y-49657143D01*
X108342857Y-49657143D01*
X108485714Y-49728571D01*
X108557143Y-49800000D01*
X108628571Y-49942857D01*
X108628571Y-50371429D01*
X108557143Y-50514286D01*
X108485714Y-50585714D01*
X111168571Y-51085714D02*
X111168571Y-51942857D01*
X111168571Y-51514285D02*
X109668571Y-51514285D01*
X109882857Y-51657142D01*
X110025714Y-51800000D01*
X110097143Y-51942857D01*
X109668571Y-49728571D02*
X109668571Y-50442857D01*
X110382857Y-50514286D01*
X110311429Y-50442857D01*
X110240000Y-50300000D01*
X110240000Y-49942857D01*
X110311429Y-49800000D01*
X110382857Y-49728571D01*
X110525714Y-49657143D01*
X110882857Y-49657143D01*
X111025714Y-49728571D01*
X111097143Y-49800000D01*
X111168571Y-49942857D01*
X111168571Y-50300000D01*
X111097143Y-50442857D01*
X111025714Y-50514286D01*
X113708571Y-51049999D02*
X112994286Y-51549999D01*
X113708571Y-51907142D02*
X112208571Y-51907142D01*
X112208571Y-51335714D01*
X112280000Y-51192856D01*
X112351429Y-51121428D01*
X112494286Y-51049999D01*
X112708571Y-51049999D01*
X112851429Y-51121428D01*
X112922857Y-51192856D01*
X112994286Y-51335714D01*
X112994286Y-51907142D01*
X112208571Y-50549999D02*
X113708571Y-49549999D01*
X112208571Y-49549999D02*
X113708571Y-50549999D01*
X114748571Y-51942857D02*
X114748571Y-51085714D01*
X116248571Y-51514285D02*
X114748571Y-51514285D01*
X114748571Y-50728571D02*
X116248571Y-49728571D01*
X114748571Y-49728571D02*
X116248571Y-50728571D01*
X119900000Y-51942857D02*
X119828571Y-52085714D01*
X119828571Y-52300000D01*
X119900000Y-52514285D01*
X120042857Y-52657143D01*
X120185714Y-52728571D01*
X120471429Y-52800000D01*
X120685714Y-52800000D01*
X120971429Y-52728571D01*
X121114286Y-52657143D01*
X121257143Y-52514285D01*
X121328571Y-52300000D01*
X121328571Y-52157143D01*
X121257143Y-51942857D01*
X121185714Y-51871428D01*
X120685714Y-51871428D01*
X120685714Y-52157143D01*
X121328571Y-51228571D02*
X119828571Y-51228571D01*
X121328571Y-50371428D01*
X119828571Y-50371428D01*
X121328571Y-49657142D02*
X119828571Y-49657142D01*
X119828571Y-49299999D01*
X119900000Y-49085714D01*
X120042857Y-48942856D01*
X120185714Y-48871428D01*
X120471429Y-48799999D01*
X120685714Y-48799999D01*
X120971429Y-48871428D01*
X121114286Y-48942856D01*
X121257143Y-49085714D01*
X121328571Y-49299999D01*
X121328571Y-49657142D01*
X117288571Y-52657142D02*
X117288571Y-51728571D01*
X117860000Y-52228571D01*
X117860000Y-52014285D01*
X117931429Y-51871428D01*
X118002857Y-51799999D01*
X118145714Y-51728571D01*
X118502857Y-51728571D01*
X118645714Y-51799999D01*
X118717143Y-51871428D01*
X118788571Y-52014285D01*
X118788571Y-52442857D01*
X118717143Y-52585714D01*
X118645714Y-52657142D01*
X117288571Y-51300000D02*
X118788571Y-50800000D01*
X117288571Y-50300000D01*
X117288571Y-49942857D02*
X117288571Y-49014286D01*
X117860000Y-49514286D01*
X117860000Y-49300000D01*
X117931429Y-49157143D01*
X118002857Y-49085714D01*
X118145714Y-49014286D01*
X118502857Y-49014286D01*
X118645714Y-49085714D01*
X118717143Y-49157143D01*
X118788571Y-49300000D01*
X118788571Y-49728572D01*
X118717143Y-49871429D01*
X118645714Y-49942857D01*
X122440000Y-51942857D02*
X122368571Y-52085714D01*
X122368571Y-52300000D01*
X122440000Y-52514285D01*
X122582857Y-52657143D01*
X122725714Y-52728571D01*
X123011429Y-52800000D01*
X123225714Y-52800000D01*
X123511429Y-52728571D01*
X123654286Y-52657143D01*
X123797143Y-52514285D01*
X123868571Y-52300000D01*
X123868571Y-52157143D01*
X123797143Y-51942857D01*
X123725714Y-51871428D01*
X123225714Y-51871428D01*
X123225714Y-52157143D01*
X123868571Y-51228571D02*
X122368571Y-51228571D01*
X123868571Y-50371428D01*
X122368571Y-50371428D01*
X123868571Y-49657142D02*
X122368571Y-49657142D01*
X122368571Y-49299999D01*
X122440000Y-49085714D01*
X122582857Y-48942856D01*
X122725714Y-48871428D01*
X123011429Y-48799999D01*
X123225714Y-48799999D01*
X123511429Y-48871428D01*
X123654286Y-48942856D01*
X123797143Y-49085714D01*
X123868571Y-49299999D01*
X123868571Y-49657142D01*
X124908571Y-52284285D02*
X124908571Y-52998571D01*
X125622857Y-53070000D01*
X125551429Y-52998571D01*
X125480000Y-52855714D01*
X125480000Y-52498571D01*
X125551429Y-52355714D01*
X125622857Y-52284285D01*
X125765714Y-52212857D01*
X126122857Y-52212857D01*
X126265714Y-52284285D01*
X126337143Y-52355714D01*
X126408571Y-52498571D01*
X126408571Y-52855714D01*
X126337143Y-52998571D01*
X126265714Y-53070000D01*
X125408571Y-51712857D02*
X126408571Y-51355714D01*
X125408571Y-50998572D01*
D12*
X132220000Y-98450000D02*
X136720000Y-98450000D01*
X130970000Y-94450000D02*
X130970000Y-95950000D01*
X136720000Y-91950000D02*
X132220000Y-91950000D01*
X137970000Y-95950000D02*
X137970000Y-94450000D01*
X114510000Y-98480000D02*
X119010000Y-98480000D01*
X113260000Y-94480000D02*
X113260000Y-95980000D01*
X119010000Y-91980000D02*
X114510000Y-91980000D01*
X120260000Y-95980000D02*
X120260000Y-94480000D01*
X96690000Y-98480000D02*
X101190000Y-98480000D01*
X95440000Y-94480000D02*
X95440000Y-95980000D01*
X101190000Y-91980000D02*
X96690000Y-91980000D01*
X102440000Y-95980000D02*
X102440000Y-94480000D01*
X140370000Y-69560000D02*
X140370000Y-69890000D01*
X140370000Y-69890000D02*
X133950000Y-69890000D01*
X133950000Y-69890000D02*
X133950000Y-69560000D01*
X140370000Y-67600000D02*
X140370000Y-67270000D01*
X140370000Y-67270000D02*
X133950000Y-67270000D01*
X133950000Y-67270000D02*
X133950000Y-67600000D01*
X128370000Y-89060000D02*
X140670000Y-89060000D01*
X140670000Y-93640000D02*
X140670000Y-96780000D01*
X140670000Y-101360000D02*
X128370000Y-101360000D01*
X128370000Y-91780000D02*
X128370000Y-89060000D01*
X139199050Y-95250000D02*
G75*
G03X139199050Y-95250000I-4579050J0D01*
G01*
X128370000Y-101360000D02*
X128370000Y-98640000D01*
X128370000Y-96780000D02*
X128370000Y-93640000D01*
X140670000Y-98640000D02*
X140670000Y-101360000D01*
X140670000Y-89060000D02*
X140670000Y-91780000D01*
X110590000Y-89060000D02*
X122890000Y-89060000D01*
X122890000Y-93640000D02*
X122890000Y-96780000D01*
X122890000Y-101360000D02*
X110590000Y-101360000D01*
X110590000Y-91780000D02*
X110590000Y-89060000D01*
X121419050Y-95250000D02*
G75*
G03X121419050Y-95250000I-4579050J0D01*
G01*
X110590000Y-101360000D02*
X110590000Y-98640000D01*
X110590000Y-96780000D02*
X110590000Y-93640000D01*
X122890000Y-98640000D02*
X122890000Y-101360000D01*
X122890000Y-89060000D02*
X122890000Y-91780000D01*
X92810000Y-89060000D02*
X105110000Y-89060000D01*
X105110000Y-93640000D02*
X105110000Y-96780000D01*
X105110000Y-101360000D02*
X92810000Y-101360000D01*
X92810000Y-91780000D02*
X92810000Y-89060000D01*
X103639050Y-95250000D02*
G75*
G03X103639050Y-95250000I-4579050J0D01*
G01*
X92810000Y-101360000D02*
X92810000Y-98640000D01*
X92810000Y-96780000D02*
X92810000Y-93640000D01*
X105110000Y-98640000D02*
X105110000Y-101360000D01*
X105110000Y-89060000D02*
X105110000Y-91780000D01*
X139100000Y-63210000D02*
X139100000Y-63540000D01*
X139100000Y-63540000D02*
X132680000Y-63540000D01*
X132680000Y-63540000D02*
X132680000Y-63210000D01*
X139100000Y-61250000D02*
X139100000Y-60920000D01*
X139100000Y-60920000D02*
X132680000Y-60920000D01*
X132680000Y-60920000D02*
X132680000Y-61250000D01*
X136560000Y-59400000D02*
X136560000Y-59730000D01*
X136560000Y-59730000D02*
X130140000Y-59730000D01*
X130140000Y-59730000D02*
X130140000Y-59400000D01*
X136560000Y-57440000D02*
X136560000Y-57110000D01*
X136560000Y-57110000D02*
X130140000Y-57110000D01*
X130140000Y-57110000D02*
X130140000Y-57440000D01*
X102790000Y-75850000D02*
X102460000Y-75850000D01*
X102460000Y-75850000D02*
X102460000Y-69430000D01*
X102460000Y-69430000D02*
X102790000Y-69430000D01*
X104750000Y-75850000D02*
X105080000Y-75850000D01*
X105080000Y-75850000D02*
X105080000Y-69430000D01*
X105080000Y-69430000D02*
X104750000Y-69430000D01*
X134910000Y-84490000D02*
X134580000Y-84490000D01*
X134580000Y-84490000D02*
X134580000Y-78070000D01*
X134580000Y-78070000D02*
X134910000Y-78070000D01*
X136870000Y-84490000D02*
X137200000Y-84490000D01*
X137200000Y-84490000D02*
X137200000Y-78070000D01*
X137200000Y-78070000D02*
X136870000Y-78070000D01*
X134350000Y-50590000D02*
X142410000Y-50590000D01*
X142410000Y-50590000D02*
X142410000Y-48470000D01*
X142410000Y-48470000D02*
X134350000Y-48470000D01*
X134350000Y-48470000D02*
X134350000Y-50590000D01*
X133350000Y-50590000D02*
X132290000Y-50590000D01*
X132290000Y-50590000D02*
X132290000Y-49530000D01*
X124750000Y-83220000D02*
X124420000Y-83220000D01*
X124420000Y-83220000D02*
X124420000Y-76800000D01*
X124420000Y-76800000D02*
X124750000Y-76800000D01*
X126710000Y-83220000D02*
X127040000Y-83220000D01*
X127040000Y-83220000D02*
X127040000Y-76800000D01*
X127040000Y-76800000D02*
X126710000Y-76800000D01*
X120940000Y-83220000D02*
X120610000Y-83220000D01*
X120610000Y-83220000D02*
X120610000Y-76800000D01*
X120610000Y-76800000D02*
X120940000Y-76800000D01*
X122900000Y-83220000D02*
X123230000Y-83220000D01*
X123230000Y-83220000D02*
X123230000Y-76800000D01*
X123230000Y-76800000D02*
X122900000Y-76800000D01*
X85760000Y-86070000D02*
X85760000Y-86400000D01*
X85760000Y-86400000D02*
X79340000Y-86400000D01*
X79340000Y-86400000D02*
X79340000Y-86070000D01*
X85760000Y-84110000D02*
X85760000Y-83780000D01*
X85760000Y-83780000D02*
X79340000Y-83780000D01*
X79340000Y-83780000D02*
X79340000Y-84110000D01*
X128560000Y-84490000D02*
X128230000Y-84490000D01*
X128230000Y-84490000D02*
X128230000Y-78070000D01*
X128230000Y-78070000D02*
X128560000Y-78070000D01*
X130520000Y-84490000D02*
X130850000Y-84490000D01*
X130850000Y-84490000D02*
X130850000Y-78070000D01*
X130850000Y-78070000D02*
X130520000Y-78070000D01*
X88900000Y-57210000D02*
X127060000Y-57210000D01*
X127060000Y-57210000D02*
X127060000Y-54550000D01*
X127060000Y-54550000D02*
X88900000Y-54550000D01*
X88900000Y-54550000D02*
X88900000Y-57210000D01*
X87630000Y-57210000D02*
X86300000Y-57210000D01*
X86300000Y-57210000D02*
X86300000Y-55880000D01*
X88900000Y-82610000D02*
X111820000Y-82610000D01*
X111820000Y-82610000D02*
X111820000Y-79950000D01*
X111820000Y-79950000D02*
X88900000Y-79950000D01*
X88900000Y-79950000D02*
X88900000Y-82610000D01*
X87630000Y-82610000D02*
X86300000Y-82610000D01*
X86300000Y-82610000D02*
X86300000Y-81280000D01*
X74998481Y-64373547D02*
X74998481Y-77133547D01*
X74998481Y-77133547D02*
X77658481Y-77133547D01*
X77658481Y-77133547D02*
X77658481Y-64373547D01*
X77658481Y-64373547D02*
X74998481Y-64373547D01*
X74998481Y-63103547D02*
X74998481Y-61773547D01*
X74998481Y-61773547D02*
X76328481Y-61773547D01*
X114590000Y-85760000D02*
X114260000Y-85760000D01*
X114260000Y-85760000D02*
X114260000Y-79340000D01*
X114260000Y-79340000D02*
X114590000Y-79340000D01*
X116550000Y-85760000D02*
X116880000Y-85760000D01*
X116880000Y-85760000D02*
X116880000Y-79340000D01*
X116880000Y-79340000D02*
X116550000Y-79340000D01*
X75030000Y-89060000D02*
X87330000Y-89060000D01*
X87330000Y-93640000D02*
X87330000Y-96780000D01*
X87330000Y-101360000D02*
X75030000Y-101360000D01*
X75030000Y-91780000D02*
X75030000Y-89060000D01*
X85859050Y-95250000D02*
G75*
G03X85859050Y-95250000I-4579050J0D01*
G01*
X75030000Y-101360000D02*
X75030000Y-98640000D01*
X75030000Y-96780000D02*
X75030000Y-93640000D01*
X87330000Y-98640000D02*
X87330000Y-101360000D01*
X87330000Y-89060000D02*
X87330000Y-91780000D01*
X71190000Y-48660000D02*
X81350000Y-48660000D01*
X71190000Y-47390000D02*
X71190000Y-55010000D01*
X71190000Y-55010000D02*
X81350000Y-55010000D01*
X81350000Y-55010000D02*
X81350000Y-47390000D01*
X81350000Y-47390000D02*
X71190000Y-47390000D01*
X78960000Y-98540000D02*
X83460000Y-98540000D01*
X77710000Y-94540000D02*
X77710000Y-96040000D01*
X83460000Y-92040000D02*
X78960000Y-92040000D01*
X84710000Y-96040000D02*
X84710000Y-94540000D01*
D13*
X133374762Y-91402381D02*
X133374762Y-90402381D01*
X133374762Y-90783333D02*
X133470000Y-90735714D01*
X133660477Y-90735714D01*
X133755715Y-90783333D01*
X133803334Y-90830952D01*
X133850953Y-90926190D01*
X133850953Y-91211905D01*
X133803334Y-91307143D01*
X133755715Y-91354762D01*
X133660477Y-91402381D01*
X133470000Y-91402381D01*
X133374762Y-91354762D01*
X134708096Y-90735714D02*
X134708096Y-91402381D01*
X134470000Y-90354762D02*
X134231905Y-91069048D01*
X134850953Y-91069048D01*
X135184286Y-91354762D02*
X135279524Y-91402381D01*
X135470000Y-91402381D01*
X135565239Y-91354762D01*
X135612858Y-91259524D01*
X135612858Y-91211905D01*
X135565239Y-91116667D01*
X135470000Y-91069048D01*
X135327143Y-91069048D01*
X135231905Y-91021429D01*
X135184286Y-90926190D01*
X135184286Y-90878571D01*
X135231905Y-90783333D01*
X135327143Y-90735714D01*
X135470000Y-90735714D01*
X135565239Y-90783333D01*
X115664762Y-91432381D02*
X115664762Y-90432381D01*
X115664762Y-90813333D02*
X115760000Y-90765714D01*
X115950477Y-90765714D01*
X116045715Y-90813333D01*
X116093334Y-90860952D01*
X116140953Y-90956190D01*
X116140953Y-91241905D01*
X116093334Y-91337143D01*
X116045715Y-91384762D01*
X115950477Y-91432381D01*
X115760000Y-91432381D01*
X115664762Y-91384762D01*
X116474286Y-90432381D02*
X117093334Y-90432381D01*
X116760000Y-90813333D01*
X116902858Y-90813333D01*
X116998096Y-90860952D01*
X117045715Y-90908571D01*
X117093334Y-91003810D01*
X117093334Y-91241905D01*
X117045715Y-91337143D01*
X116998096Y-91384762D01*
X116902858Y-91432381D01*
X116617143Y-91432381D01*
X116521905Y-91384762D01*
X116474286Y-91337143D01*
X117474286Y-91384762D02*
X117569524Y-91432381D01*
X117760000Y-91432381D01*
X117855239Y-91384762D01*
X117902858Y-91289524D01*
X117902858Y-91241905D01*
X117855239Y-91146667D01*
X117760000Y-91099048D01*
X117617143Y-91099048D01*
X117521905Y-91051429D01*
X117474286Y-90956190D01*
X117474286Y-90908571D01*
X117521905Y-90813333D01*
X117617143Y-90765714D01*
X117760000Y-90765714D01*
X117855239Y-90813333D01*
X97844762Y-91432381D02*
X97844762Y-90432381D01*
X97844762Y-90813333D02*
X97940000Y-90765714D01*
X98130477Y-90765714D01*
X98225715Y-90813333D01*
X98273334Y-90860952D01*
X98320953Y-90956190D01*
X98320953Y-91241905D01*
X98273334Y-91337143D01*
X98225715Y-91384762D01*
X98130477Y-91432381D01*
X97940000Y-91432381D01*
X97844762Y-91384762D01*
X98701905Y-90527619D02*
X98749524Y-90480000D01*
X98844762Y-90432381D01*
X99082858Y-90432381D01*
X99178096Y-90480000D01*
X99225715Y-90527619D01*
X99273334Y-90622857D01*
X99273334Y-90718095D01*
X99225715Y-90860952D01*
X98654286Y-91432381D01*
X99273334Y-91432381D01*
X99654286Y-91384762D02*
X99749524Y-91432381D01*
X99940000Y-91432381D01*
X100035239Y-91384762D01*
X100082858Y-91289524D01*
X100082858Y-91241905D01*
X100035239Y-91146667D01*
X99940000Y-91099048D01*
X99797143Y-91099048D01*
X99701905Y-91051429D01*
X99654286Y-90956190D01*
X99654286Y-90908571D01*
X99701905Y-90813333D01*
X99797143Y-90765714D01*
X99940000Y-90765714D01*
X100035239Y-90813333D01*
X135921905Y-71294762D02*
X136064762Y-71342381D01*
X136302858Y-71342381D01*
X136398096Y-71294762D01*
X136445715Y-71247143D01*
X136493334Y-71151905D01*
X136493334Y-71056667D01*
X136445715Y-70961429D01*
X136398096Y-70913810D01*
X136302858Y-70866190D01*
X136112381Y-70818571D01*
X136017143Y-70770952D01*
X135969524Y-70723333D01*
X135921905Y-70628095D01*
X135921905Y-70532857D01*
X135969524Y-70437619D01*
X136017143Y-70390000D01*
X136112381Y-70342381D01*
X136350477Y-70342381D01*
X136493334Y-70390000D01*
X137445715Y-71342381D02*
X136874286Y-71342381D01*
X137160000Y-71342381D02*
X137160000Y-70342381D01*
X137064762Y-70485238D01*
X136969524Y-70580476D01*
X136874286Y-70628095D01*
X137826667Y-70437619D02*
X137874286Y-70390000D01*
X137969524Y-70342381D01*
X138207620Y-70342381D01*
X138302858Y-70390000D01*
X138350477Y-70437619D01*
X138398096Y-70532857D01*
X138398096Y-70628095D01*
X138350477Y-70770952D01*
X137779048Y-71342381D01*
X138398096Y-71342381D01*
X133945239Y-87978571D02*
X134088096Y-88026190D01*
X134135715Y-88073810D01*
X134183334Y-88169048D01*
X134183334Y-88311905D01*
X134135715Y-88407143D01*
X134088096Y-88454762D01*
X133992858Y-88502381D01*
X133611905Y-88502381D01*
X133611905Y-87502381D01*
X133945239Y-87502381D01*
X134040477Y-87550000D01*
X134088096Y-87597619D01*
X134135715Y-87692857D01*
X134135715Y-87788095D01*
X134088096Y-87883333D01*
X134040477Y-87930952D01*
X133945239Y-87978571D01*
X133611905Y-87978571D01*
X135040477Y-87835714D02*
X135040477Y-88502381D01*
X134802381Y-87454762D02*
X134564286Y-88169048D01*
X135183334Y-88169048D01*
X116165239Y-87978571D02*
X116308096Y-88026190D01*
X116355715Y-88073810D01*
X116403334Y-88169048D01*
X116403334Y-88311905D01*
X116355715Y-88407143D01*
X116308096Y-88454762D01*
X116212858Y-88502381D01*
X115831905Y-88502381D01*
X115831905Y-87502381D01*
X116165239Y-87502381D01*
X116260477Y-87550000D01*
X116308096Y-87597619D01*
X116355715Y-87692857D01*
X116355715Y-87788095D01*
X116308096Y-87883333D01*
X116260477Y-87930952D01*
X116165239Y-87978571D01*
X115831905Y-87978571D01*
X116736667Y-87502381D02*
X117355715Y-87502381D01*
X117022381Y-87883333D01*
X117165239Y-87883333D01*
X117260477Y-87930952D01*
X117308096Y-87978571D01*
X117355715Y-88073810D01*
X117355715Y-88311905D01*
X117308096Y-88407143D01*
X117260477Y-88454762D01*
X117165239Y-88502381D01*
X116879524Y-88502381D01*
X116784286Y-88454762D01*
X116736667Y-88407143D01*
X98385239Y-87978571D02*
X98528096Y-88026190D01*
X98575715Y-88073810D01*
X98623334Y-88169048D01*
X98623334Y-88311905D01*
X98575715Y-88407143D01*
X98528096Y-88454762D01*
X98432858Y-88502381D01*
X98051905Y-88502381D01*
X98051905Y-87502381D01*
X98385239Y-87502381D01*
X98480477Y-87550000D01*
X98528096Y-87597619D01*
X98575715Y-87692857D01*
X98575715Y-87788095D01*
X98528096Y-87883333D01*
X98480477Y-87930952D01*
X98385239Y-87978571D01*
X98051905Y-87978571D01*
X99004286Y-87597619D02*
X99051905Y-87550000D01*
X99147143Y-87502381D01*
X99385239Y-87502381D01*
X99480477Y-87550000D01*
X99528096Y-87597619D01*
X99575715Y-87692857D01*
X99575715Y-87788095D01*
X99528096Y-87930952D01*
X98956667Y-88502381D01*
X99575715Y-88502381D01*
X135247143Y-64992381D02*
X134913809Y-64516190D01*
X134675714Y-64992381D02*
X134675714Y-63992381D01*
X135056667Y-63992381D01*
X135151905Y-64040000D01*
X135199524Y-64087619D01*
X135247143Y-64182857D01*
X135247143Y-64325714D01*
X135199524Y-64420952D01*
X135151905Y-64468571D01*
X135056667Y-64516190D01*
X134675714Y-64516190D01*
X136199524Y-64992381D02*
X135628095Y-64992381D01*
X135913809Y-64992381D02*
X135913809Y-63992381D01*
X135818571Y-64135238D01*
X135723333Y-64230476D01*
X135628095Y-64278095D01*
X137151905Y-64992381D02*
X136580476Y-64992381D01*
X136866190Y-64992381D02*
X136866190Y-63992381D01*
X136770952Y-64135238D01*
X136675714Y-64230476D01*
X136580476Y-64278095D01*
X132707143Y-61182381D02*
X132373809Y-60706190D01*
X132135714Y-61182381D02*
X132135714Y-60182381D01*
X132516667Y-60182381D01*
X132611905Y-60230000D01*
X132659524Y-60277619D01*
X132707143Y-60372857D01*
X132707143Y-60515714D01*
X132659524Y-60610952D01*
X132611905Y-60658571D01*
X132516667Y-60706190D01*
X132135714Y-60706190D01*
X133659524Y-61182381D02*
X133088095Y-61182381D01*
X133373809Y-61182381D02*
X133373809Y-60182381D01*
X133278571Y-60325238D01*
X133183333Y-60420476D01*
X133088095Y-60468095D01*
X134278571Y-60182381D02*
X134373810Y-60182381D01*
X134469048Y-60230000D01*
X134516667Y-60277619D01*
X134564286Y-60372857D01*
X134611905Y-60563333D01*
X134611905Y-60801429D01*
X134564286Y-60991905D01*
X134516667Y-61087143D01*
X134469048Y-61134762D01*
X134373810Y-61182381D01*
X134278571Y-61182381D01*
X134183333Y-61134762D01*
X134135714Y-61087143D01*
X134088095Y-60991905D01*
X134040476Y-60801429D01*
X134040476Y-60563333D01*
X134088095Y-60372857D01*
X134135714Y-60277619D01*
X134183333Y-60230000D01*
X134278571Y-60182381D01*
X101864762Y-73401905D02*
X101912381Y-73259048D01*
X101912381Y-73020952D01*
X101864762Y-72925714D01*
X101817143Y-72878095D01*
X101721905Y-72830476D01*
X101626667Y-72830476D01*
X101531429Y-72878095D01*
X101483810Y-72925714D01*
X101436190Y-73020952D01*
X101388571Y-73211429D01*
X101340952Y-73306667D01*
X101293333Y-73354286D01*
X101198095Y-73401905D01*
X101102857Y-73401905D01*
X101007619Y-73354286D01*
X100960000Y-73306667D01*
X100912381Y-73211429D01*
X100912381Y-72973333D01*
X100960000Y-72830476D01*
X101912381Y-71878095D02*
X101912381Y-72449524D01*
X101912381Y-72163810D02*
X100912381Y-72163810D01*
X101055238Y-72259048D01*
X101150476Y-72354286D01*
X101198095Y-72449524D01*
X134032381Y-81446666D02*
X133556190Y-81780000D01*
X134032381Y-82018095D02*
X133032381Y-82018095D01*
X133032381Y-81637142D01*
X133080000Y-81541904D01*
X133127619Y-81494285D01*
X133222857Y-81446666D01*
X133365714Y-81446666D01*
X133460952Y-81494285D01*
X133508571Y-81541904D01*
X133556190Y-81637142D01*
X133556190Y-82018095D01*
X133032381Y-81113333D02*
X133032381Y-80446666D01*
X134032381Y-80875238D01*
X123824762Y-80771905D02*
X123872381Y-80629048D01*
X123872381Y-80390952D01*
X123824762Y-80295714D01*
X123777143Y-80248095D01*
X123681905Y-80200476D01*
X123586667Y-80200476D01*
X123491429Y-80248095D01*
X123443810Y-80295714D01*
X123396190Y-80390952D01*
X123348571Y-80581429D01*
X123300952Y-80676667D01*
X123253333Y-80724286D01*
X123158095Y-80771905D01*
X123062857Y-80771905D01*
X122967619Y-80724286D01*
X122920000Y-80676667D01*
X122872381Y-80581429D01*
X122872381Y-80343333D01*
X122920000Y-80200476D01*
X122967619Y-79819524D02*
X122920000Y-79771905D01*
X122872381Y-79676667D01*
X122872381Y-79438571D01*
X122920000Y-79343333D01*
X122967619Y-79295714D01*
X123062857Y-79248095D01*
X123158095Y-79248095D01*
X123300952Y-79295714D01*
X123872381Y-79867143D01*
X123872381Y-79248095D01*
X120014762Y-80771905D02*
X120062381Y-80629048D01*
X120062381Y-80390952D01*
X120014762Y-80295714D01*
X119967143Y-80248095D01*
X119871905Y-80200476D01*
X119776667Y-80200476D01*
X119681429Y-80248095D01*
X119633810Y-80295714D01*
X119586190Y-80390952D01*
X119538571Y-80581429D01*
X119490952Y-80676667D01*
X119443333Y-80724286D01*
X119348095Y-80771905D01*
X119252857Y-80771905D01*
X119157619Y-80724286D01*
X119110000Y-80676667D01*
X119062381Y-80581429D01*
X119062381Y-80343333D01*
X119110000Y-80200476D01*
X119062381Y-79867143D02*
X119062381Y-79248095D01*
X119443333Y-79581429D01*
X119443333Y-79438571D01*
X119490952Y-79343333D01*
X119538571Y-79295714D01*
X119633810Y-79248095D01*
X119871905Y-79248095D01*
X119967143Y-79295714D01*
X120014762Y-79343333D01*
X120062381Y-79438571D01*
X120062381Y-79724286D01*
X120014762Y-79819524D01*
X119967143Y-79867143D01*
X82383334Y-87852381D02*
X82050000Y-87376190D01*
X81811905Y-87852381D02*
X81811905Y-86852381D01*
X82192858Y-86852381D01*
X82288096Y-86900000D01*
X82335715Y-86947619D01*
X82383334Y-87042857D01*
X82383334Y-87185714D01*
X82335715Y-87280952D01*
X82288096Y-87328571D01*
X82192858Y-87376190D01*
X81811905Y-87376190D01*
X83288096Y-86852381D02*
X82811905Y-86852381D01*
X82764286Y-87328571D01*
X82811905Y-87280952D01*
X82907143Y-87233333D01*
X83145239Y-87233333D01*
X83240477Y-87280952D01*
X83288096Y-87328571D01*
X83335715Y-87423810D01*
X83335715Y-87661905D01*
X83288096Y-87757143D01*
X83240477Y-87804762D01*
X83145239Y-87852381D01*
X82907143Y-87852381D01*
X82811905Y-87804762D01*
X82764286Y-87757143D01*
X127682381Y-81446666D02*
X127206190Y-81780000D01*
X127682381Y-82018095D02*
X126682381Y-82018095D01*
X126682381Y-81637142D01*
X126730000Y-81541904D01*
X126777619Y-81494285D01*
X126872857Y-81446666D01*
X127015714Y-81446666D01*
X127110952Y-81494285D01*
X127158571Y-81541904D01*
X127206190Y-81637142D01*
X127206190Y-82018095D01*
X126682381Y-80589523D02*
X126682381Y-80780000D01*
X126730000Y-80875238D01*
X126777619Y-80922857D01*
X126920476Y-81018095D01*
X127110952Y-81065714D01*
X127491905Y-81065714D01*
X127587143Y-81018095D01*
X127634762Y-80970476D01*
X127682381Y-80875238D01*
X127682381Y-80684761D01*
X127634762Y-80589523D01*
X127587143Y-80541904D01*
X127491905Y-80494285D01*
X127253810Y-80494285D01*
X127158571Y-80541904D01*
X127110952Y-80589523D01*
X127063333Y-80684761D01*
X127063333Y-80875238D01*
X127110952Y-80970476D01*
X127158571Y-81018095D01*
X127253810Y-81065714D01*
X85657143Y-56046666D02*
X85704762Y-56094285D01*
X85752381Y-56237142D01*
X85752381Y-56332380D01*
X85704762Y-56475238D01*
X85609524Y-56570476D01*
X85514286Y-56618095D01*
X85323810Y-56665714D01*
X85180952Y-56665714D01*
X84990476Y-56618095D01*
X84895238Y-56570476D01*
X84800000Y-56475238D01*
X84752381Y-56332380D01*
X84752381Y-56237142D01*
X84800000Y-56094285D01*
X84847619Y-56046666D01*
X84847619Y-55665714D02*
X84800000Y-55618095D01*
X84752381Y-55522857D01*
X84752381Y-55284761D01*
X84800000Y-55189523D01*
X84847619Y-55141904D01*
X84942857Y-55094285D01*
X85038095Y-55094285D01*
X85180952Y-55141904D01*
X85752381Y-55713333D01*
X85752381Y-55094285D01*
X85657143Y-81446666D02*
X85704762Y-81494285D01*
X85752381Y-81637142D01*
X85752381Y-81732380D01*
X85704762Y-81875238D01*
X85609524Y-81970476D01*
X85514286Y-82018095D01*
X85323810Y-82065714D01*
X85180952Y-82065714D01*
X84990476Y-82018095D01*
X84895238Y-81970476D01*
X84800000Y-81875238D01*
X84752381Y-81732380D01*
X84752381Y-81637142D01*
X84800000Y-81494285D01*
X84847619Y-81446666D01*
X85752381Y-80494285D02*
X85752381Y-81065714D01*
X85752381Y-80780000D02*
X84752381Y-80780000D01*
X84895238Y-80875238D01*
X84990476Y-80970476D01*
X85038095Y-81065714D01*
X73090386Y-61178309D02*
X73233243Y-61225928D01*
X73471339Y-61225928D01*
X73566577Y-61178309D01*
X73614196Y-61130690D01*
X73661815Y-61035452D01*
X73661815Y-60940214D01*
X73614196Y-60844976D01*
X73566577Y-60797357D01*
X73471339Y-60749737D01*
X73280862Y-60702118D01*
X73185624Y-60654499D01*
X73138005Y-60606880D01*
X73090386Y-60511642D01*
X73090386Y-60416404D01*
X73138005Y-60321166D01*
X73185624Y-60273547D01*
X73280862Y-60225928D01*
X73518958Y-60225928D01*
X73661815Y-60273547D01*
X74090386Y-61225928D02*
X74090386Y-60225928D01*
X74328481Y-60225928D01*
X74471339Y-60273547D01*
X74566577Y-60368785D01*
X74614196Y-60464023D01*
X74661815Y-60654499D01*
X74661815Y-60797357D01*
X74614196Y-60987833D01*
X74566577Y-61083071D01*
X74471339Y-61178309D01*
X74328481Y-61225928D01*
X74090386Y-61225928D01*
X76423720Y-61130690D02*
X76376101Y-61178309D01*
X76233244Y-61225928D01*
X76138006Y-61225928D01*
X75995148Y-61178309D01*
X75899910Y-61083071D01*
X75852291Y-60987833D01*
X75804672Y-60797357D01*
X75804672Y-60654499D01*
X75852291Y-60464023D01*
X75899910Y-60368785D01*
X75995148Y-60273547D01*
X76138006Y-60225928D01*
X76233244Y-60225928D01*
X76376101Y-60273547D01*
X76423720Y-60321166D01*
X77042767Y-60225928D02*
X77233244Y-60225928D01*
X77328482Y-60273547D01*
X77423720Y-60368785D01*
X77471339Y-60559261D01*
X77471339Y-60892595D01*
X77423720Y-61083071D01*
X77328482Y-61178309D01*
X77233244Y-61225928D01*
X77042767Y-61225928D01*
X76947529Y-61178309D01*
X76852291Y-61083071D01*
X76804672Y-60892595D01*
X76804672Y-60559261D01*
X76852291Y-60368785D01*
X76947529Y-60273547D01*
X77042767Y-60225928D01*
X77899910Y-61225928D02*
X77899910Y-60225928D01*
X78471339Y-61225928D01*
X78471339Y-60225928D01*
X78947529Y-61225928D02*
X78947529Y-60225928D01*
X79518958Y-61225928D01*
X79518958Y-60225928D01*
X113712381Y-82716666D02*
X113236190Y-83050000D01*
X113712381Y-83288095D02*
X112712381Y-83288095D01*
X112712381Y-82907142D01*
X112760000Y-82811904D01*
X112807619Y-82764285D01*
X112902857Y-82716666D01*
X113045714Y-82716666D01*
X113140952Y-82764285D01*
X113188571Y-82811904D01*
X113236190Y-82907142D01*
X113236190Y-83288095D01*
X113045714Y-81859523D02*
X113712381Y-81859523D01*
X112664762Y-82097619D02*
X113379048Y-82335714D01*
X113379048Y-81716666D01*
X80605239Y-87978571D02*
X80748096Y-88026190D01*
X80795715Y-88073810D01*
X80843334Y-88169048D01*
X80843334Y-88311905D01*
X80795715Y-88407143D01*
X80748096Y-88454762D01*
X80652858Y-88502381D01*
X80271905Y-88502381D01*
X80271905Y-87502381D01*
X80605239Y-87502381D01*
X80700477Y-87550000D01*
X80748096Y-87597619D01*
X80795715Y-87692857D01*
X80795715Y-87788095D01*
X80748096Y-87883333D01*
X80700477Y-87930952D01*
X80605239Y-87978571D01*
X80271905Y-87978571D01*
X81795715Y-88502381D02*
X81224286Y-88502381D01*
X81510000Y-88502381D02*
X81510000Y-87502381D01*
X81414762Y-87645238D01*
X81319524Y-87740476D01*
X81224286Y-87788095D01*
X80114762Y-91492381D02*
X80114762Y-90492381D01*
X80114762Y-90873333D02*
X80210000Y-90825714D01*
X80400477Y-90825714D01*
X80495715Y-90873333D01*
X80543334Y-90920952D01*
X80590953Y-91016190D01*
X80590953Y-91301905D01*
X80543334Y-91397143D01*
X80495715Y-91444762D01*
X80400477Y-91492381D01*
X80210000Y-91492381D01*
X80114762Y-91444762D01*
X81543334Y-91492381D02*
X80971905Y-91492381D01*
X81257619Y-91492381D02*
X81257619Y-90492381D01*
X81162381Y-90635238D01*
X81067143Y-90730476D01*
X80971905Y-90778095D01*
X81924286Y-91444762D02*
X82019524Y-91492381D01*
X82210000Y-91492381D01*
X82305239Y-91444762D01*
X82352858Y-91349524D01*
X82352858Y-91301905D01*
X82305239Y-91206667D01*
X82210000Y-91159048D01*
X82067143Y-91159048D01*
X81971905Y-91111429D01*
X81924286Y-91016190D01*
X81924286Y-90968571D01*
X81971905Y-90873333D01*
X82067143Y-90825714D01*
X82210000Y-90825714D01*
X82305239Y-90873333D01*
M02*
