G04 #@! TF.FileFunction,Copper,L2,Bot,Signal*
%FSLAX46Y46*%
G04 Gerber Fmt 4.6, Leading zero omitted, Abs format (unit mm)*
G04 Created by KiCad (PCBNEW 4.0.7) date 02/16/18 07:03:29*
%MOMM*%
%LPD*%
G01*
G04 APERTURE LIST*
%ADD10C,0.100000*%
%ADD11C,0.300000*%
%ADD12C,3.000000*%
%ADD13O,3.000000X1.600000*%
%ADD14O,4.000000X3.000000*%
%ADD15O,1.600000X3.000000*%
%ADD16R,1.350000X3.000000*%
%ADD17O,1.350000X3.000000*%
%ADD18R,1.700000X3.000000*%
%ADD19O,1.700000X3.000000*%
%ADD20R,3.000000X1.700000*%
%ADD21O,3.000000X1.700000*%
%ADD22R,4.000000X4.000000*%
%ADD23C,4.000000*%
%ADD24C,0.600000*%
%ADD25C,0.250000*%
G04 APERTURE END LIST*
D10*
D11*
X140785714Y-100750000D02*
X140928571Y-100678571D01*
X141142857Y-100678571D01*
X141357142Y-100750000D01*
X141500000Y-100892857D01*
X141571428Y-101035714D01*
X141642857Y-101321429D01*
X141642857Y-101535714D01*
X141571428Y-101821429D01*
X141500000Y-101964286D01*
X141357142Y-102107143D01*
X141142857Y-102178571D01*
X141000000Y-102178571D01*
X140785714Y-102107143D01*
X140714285Y-102035714D01*
X140714285Y-101535714D01*
X141000000Y-101535714D01*
X140071428Y-102178571D02*
X140071428Y-101178571D01*
X140071428Y-101464286D02*
X140000000Y-101321429D01*
X139928571Y-101250000D01*
X139785714Y-101178571D01*
X139642857Y-101178571D01*
X139142857Y-102178571D02*
X139142857Y-100678571D01*
X139142857Y-101250000D02*
X139000000Y-101178571D01*
X138714286Y-101178571D01*
X138571429Y-101250000D01*
X138500000Y-101321429D01*
X138428571Y-101464286D01*
X138428571Y-101892857D01*
X138500000Y-102035714D01*
X138571429Y-102107143D01*
X138714286Y-102178571D01*
X139000000Y-102178571D01*
X139142857Y-102107143D01*
X137571428Y-102178571D02*
X137714286Y-102107143D01*
X137785714Y-101964286D01*
X137785714Y-100678571D01*
X135857143Y-101607143D02*
X134714286Y-101607143D01*
X132000000Y-102035714D02*
X132071429Y-102107143D01*
X132285715Y-102178571D01*
X132428572Y-102178571D01*
X132642857Y-102107143D01*
X132785715Y-101964286D01*
X132857143Y-101821429D01*
X132928572Y-101535714D01*
X132928572Y-101321429D01*
X132857143Y-101035714D01*
X132785715Y-100892857D01*
X132642857Y-100750000D01*
X132428572Y-100678571D01*
X132285715Y-100678571D01*
X132071429Y-100750000D01*
X132000000Y-100821429D01*
X131142857Y-102178571D02*
X131285715Y-102107143D01*
X131357143Y-102035714D01*
X131428572Y-101892857D01*
X131428572Y-101464286D01*
X131357143Y-101321429D01*
X131285715Y-101250000D01*
X131142857Y-101178571D01*
X130928572Y-101178571D01*
X130785715Y-101250000D01*
X130714286Y-101321429D01*
X130642857Y-101464286D01*
X130642857Y-101892857D01*
X130714286Y-102035714D01*
X130785715Y-102107143D01*
X130928572Y-102178571D01*
X131142857Y-102178571D01*
X130000000Y-102178571D02*
X130000000Y-101178571D01*
X130000000Y-101321429D02*
X129928572Y-101250000D01*
X129785714Y-101178571D01*
X129571429Y-101178571D01*
X129428572Y-101250000D01*
X129357143Y-101392857D01*
X129357143Y-102178571D01*
X129357143Y-101392857D02*
X129285714Y-101250000D01*
X129142857Y-101178571D01*
X128928572Y-101178571D01*
X128785714Y-101250000D01*
X128714286Y-101392857D01*
X128714286Y-102178571D01*
X128000000Y-102178571D02*
X128000000Y-101178571D01*
X128000000Y-101321429D02*
X127928572Y-101250000D01*
X127785714Y-101178571D01*
X127571429Y-101178571D01*
X127428572Y-101250000D01*
X127357143Y-101392857D01*
X127357143Y-102178571D01*
X127357143Y-101392857D02*
X127285714Y-101250000D01*
X127142857Y-101178571D01*
X126928572Y-101178571D01*
X126785714Y-101250000D01*
X126714286Y-101392857D01*
X126714286Y-102178571D01*
X125357143Y-102178571D02*
X125357143Y-101392857D01*
X125428572Y-101250000D01*
X125571429Y-101178571D01*
X125857143Y-101178571D01*
X126000000Y-101250000D01*
X125357143Y-102107143D02*
X125500000Y-102178571D01*
X125857143Y-102178571D01*
X126000000Y-102107143D01*
X126071429Y-101964286D01*
X126071429Y-101821429D01*
X126000000Y-101678571D01*
X125857143Y-101607143D01*
X125500000Y-101607143D01*
X125357143Y-101535714D01*
X124642857Y-101178571D02*
X124642857Y-102178571D01*
X124642857Y-101321429D02*
X124571429Y-101250000D01*
X124428571Y-101178571D01*
X124214286Y-101178571D01*
X124071429Y-101250000D01*
X124000000Y-101392857D01*
X124000000Y-102178571D01*
X122642857Y-102178571D02*
X122642857Y-100678571D01*
X122642857Y-102107143D02*
X122785714Y-102178571D01*
X123071428Y-102178571D01*
X123214286Y-102107143D01*
X123285714Y-102035714D01*
X123357143Y-101892857D01*
X123357143Y-101464286D01*
X123285714Y-101321429D01*
X123214286Y-101250000D01*
X123071428Y-101178571D01*
X122785714Y-101178571D01*
X122642857Y-101250000D01*
X121357143Y-102107143D02*
X121500000Y-102178571D01*
X121785714Y-102178571D01*
X121928571Y-102107143D01*
X122000000Y-101964286D01*
X122000000Y-101392857D01*
X121928571Y-101250000D01*
X121785714Y-101178571D01*
X121500000Y-101178571D01*
X121357143Y-101250000D01*
X121285714Y-101392857D01*
X121285714Y-101535714D01*
X122000000Y-101678571D01*
X120642857Y-102178571D02*
X120642857Y-101178571D01*
X120642857Y-101464286D02*
X120571429Y-101321429D01*
X120500000Y-101250000D01*
X120357143Y-101178571D01*
X120214286Y-101178571D01*
D12*
X131220000Y-97450000D03*
X131220000Y-92950000D03*
X137720000Y-97450000D03*
X137720000Y-92950000D03*
X113510000Y-97480000D03*
X113510000Y-92980000D03*
X120010000Y-97480000D03*
X120010000Y-92980000D03*
X95690000Y-97480000D03*
X95690000Y-92980000D03*
X102190000Y-97480000D03*
X102190000Y-92980000D03*
D13*
X140970000Y-68580000D03*
X133350000Y-68580000D03*
D14*
X140770000Y-92710000D03*
X140770000Y-97710000D03*
X128270000Y-92710000D03*
X128270000Y-97710000D03*
X122990000Y-92710000D03*
X122990000Y-97710000D03*
X110490000Y-92710000D03*
X110490000Y-97710000D03*
X105210000Y-92710000D03*
X105210000Y-97710000D03*
X92710000Y-92710000D03*
X92710000Y-97710000D03*
D13*
X139700000Y-62230000D03*
X132080000Y-62230000D03*
X137160000Y-58420000D03*
X129540000Y-58420000D03*
X103770000Y-76450000D03*
X103770000Y-68830000D03*
D15*
X135890000Y-85090000D03*
X135890000Y-77470000D03*
D16*
X133350000Y-49530000D03*
D17*
X135350000Y-49530000D03*
X137350000Y-49530000D03*
X139350000Y-49530000D03*
X141350000Y-49530000D03*
D15*
X125730000Y-83820000D03*
X125730000Y-76200000D03*
X121920000Y-83820000D03*
X121920000Y-76200000D03*
D13*
X86360000Y-85090000D03*
X78740000Y-85090000D03*
D15*
X129540000Y-85090000D03*
X129540000Y-77470000D03*
D18*
X87630000Y-55880000D03*
D19*
X90170000Y-55880000D03*
X92710000Y-55880000D03*
X95250000Y-55880000D03*
X97790000Y-55880000D03*
X100330000Y-55880000D03*
X102870000Y-55880000D03*
X105410000Y-55880000D03*
X107950000Y-55880000D03*
X110490000Y-55880000D03*
X113030000Y-55880000D03*
X115570000Y-55880000D03*
X118110000Y-55880000D03*
X120650000Y-55880000D03*
X123190000Y-55880000D03*
X125730000Y-55880000D03*
D18*
X87630000Y-81280000D03*
D19*
X90170000Y-81280000D03*
X92710000Y-81280000D03*
X95250000Y-81280000D03*
X97790000Y-81280000D03*
X100330000Y-81280000D03*
X102870000Y-81280000D03*
X105410000Y-81280000D03*
X107950000Y-81280000D03*
X110490000Y-81280000D03*
D20*
X76328481Y-63103547D03*
D21*
X76328481Y-65643547D03*
X76328481Y-68183547D03*
X76328481Y-70723547D03*
X76328481Y-73263547D03*
X76328481Y-75803547D03*
D15*
X115570000Y-86360000D03*
X115570000Y-78740000D03*
D14*
X87430000Y-92710000D03*
X87430000Y-97710000D03*
X74930000Y-92710000D03*
X74930000Y-97710000D03*
D22*
X78810000Y-51200000D03*
D23*
X73730000Y-51200000D03*
D12*
X77960000Y-97540000D03*
X77960000Y-93040000D03*
X84460000Y-97540000D03*
X84460000Y-93040000D03*
D24*
X133260000Y-72390000D02*
X133730000Y-72390000D01*
X99730000Y-72390000D02*
X133260000Y-72390000D01*
X133260000Y-72390000D02*
X134130000Y-72390000D01*
X134650000Y-71870000D02*
X139290000Y-67230000D01*
X134210000Y-72310000D02*
X134650000Y-71870000D01*
X134650000Y-71870000D02*
X134130000Y-72390000D01*
X133730000Y-72390000D02*
X134130000Y-72390000D01*
X134130000Y-72390000D02*
X134210000Y-72310000D01*
X131220000Y-97450000D02*
X137720000Y-97450000D01*
X131220000Y-92950000D02*
X133341320Y-92950000D01*
X133341320Y-92950000D02*
X137720000Y-92950000D01*
X113510000Y-97480000D02*
X120010000Y-97480000D01*
X95690000Y-97480000D02*
X102190000Y-97480000D01*
X113510000Y-92980000D02*
X120010000Y-92980000D01*
X95690000Y-92980000D02*
X97811320Y-92980000D01*
X97811320Y-92980000D02*
X102190000Y-92980000D01*
X77960000Y-93040000D02*
X84460000Y-93040000D01*
X71680000Y-83500000D02*
X76328481Y-78851519D01*
X76328481Y-78851519D02*
X76328481Y-75803547D01*
X71680000Y-97060000D02*
X71680000Y-83500000D01*
X74930000Y-97710000D02*
X72330000Y-97710000D01*
X72330000Y-97710000D02*
X71680000Y-97060000D01*
X84460000Y-97540000D02*
X82338680Y-97540000D01*
X82338680Y-97540000D02*
X77960000Y-97540000D01*
X134210000Y-72310000D02*
X134210000Y-72240000D01*
X134210000Y-72240000D02*
X139840000Y-66610000D01*
X90170000Y-81280000D02*
X90170000Y-78660000D01*
X90170000Y-78660000D02*
X97710000Y-71120000D01*
X97710000Y-71120000D02*
X133930000Y-71120000D01*
X133930000Y-71120000D02*
X137350000Y-67700000D01*
X137350000Y-67700000D02*
X137350000Y-67120000D01*
X137350000Y-67120000D02*
X137350000Y-49530000D01*
X78740000Y-85090000D02*
X78740000Y-83690000D01*
X78740000Y-83690000D02*
X78920000Y-83510000D01*
X78920000Y-83510000D02*
X80535000Y-83510000D01*
X73730000Y-51200000D02*
X73730000Y-47560000D01*
X73730000Y-47560000D02*
X74430000Y-46860000D01*
X74430000Y-46860000D02*
X75265406Y-46860000D01*
X75265406Y-46860000D02*
X134120000Y-46860000D01*
X139170000Y-67290000D02*
X139840000Y-66620000D01*
X139840000Y-66610000D02*
X139840000Y-49910000D01*
X83910000Y-51150000D02*
X83860000Y-51200000D01*
X83860000Y-51200000D02*
X78810000Y-51200000D01*
X120630000Y-54657919D02*
X120630000Y-52470000D01*
X120630000Y-52470000D02*
X119310000Y-51150000D01*
X120650000Y-55880000D02*
X120650000Y-54677919D01*
X120650000Y-54677919D02*
X120630000Y-54657919D01*
X135350000Y-48575406D02*
X135350000Y-49530000D01*
X134120000Y-46900000D02*
X135365406Y-48145406D01*
X84460000Y-93040000D02*
X87100000Y-93040000D01*
X87100000Y-93040000D02*
X87430000Y-92710000D01*
X84460000Y-97540000D02*
X87260000Y-97540000D01*
X87260000Y-97540000D02*
X87430000Y-97710000D01*
X102190000Y-92980000D02*
X104940000Y-92980000D01*
X104940000Y-92980000D02*
X105210000Y-92710000D01*
X102190000Y-97480000D02*
X104980000Y-97480000D01*
X104980000Y-97480000D02*
X105210000Y-97710000D01*
X137720000Y-97450000D02*
X140510000Y-97450000D01*
X140510000Y-97450000D02*
X140770000Y-97710000D01*
X137720000Y-92950000D02*
X140530000Y-92950000D01*
X140530000Y-92950000D02*
X140770000Y-92710000D01*
X120010000Y-92980000D02*
X122720000Y-92980000D01*
X122720000Y-92980000D02*
X122990000Y-92710000D01*
X120010000Y-97480000D02*
X120010000Y-96065787D01*
X120010000Y-96065787D02*
X120650000Y-95425787D01*
X120650000Y-95425787D02*
X120650000Y-95250000D01*
X120010000Y-97480000D02*
X122760000Y-97480000D01*
X122760000Y-97480000D02*
X122990000Y-97710000D01*
X99860000Y-95250000D02*
X101600000Y-95250000D01*
X90170000Y-95250000D02*
X99860000Y-95250000D01*
X101854000Y-74676000D02*
X115340000Y-74676000D01*
X116840000Y-76200000D02*
X116840000Y-76176000D01*
X116840000Y-76176000D02*
X115340000Y-74676000D01*
X76328481Y-63103547D02*
X90546453Y-63103547D01*
X90546453Y-63103547D02*
X95250000Y-58400000D01*
X95250000Y-58400000D02*
X95250000Y-55880000D01*
X101590000Y-59610000D02*
X102870000Y-58330000D01*
X102870000Y-58330000D02*
X102870000Y-55880000D01*
X97010000Y-59610000D02*
X101590000Y-59610000D01*
X91030000Y-65590000D02*
X97010000Y-59610000D01*
X90590000Y-65590000D02*
X91030000Y-65590000D01*
X90536453Y-65643547D02*
X90590000Y-65590000D01*
X76328481Y-65643547D02*
X90536453Y-65643547D01*
X76328481Y-68183547D02*
X90426453Y-68183547D01*
X90426453Y-68183547D02*
X97170000Y-61440000D01*
X97170000Y-61440000D02*
X104020000Y-61440000D01*
X104020000Y-61440000D02*
X105410000Y-60050000D01*
X105410000Y-60050000D02*
X105410000Y-55880000D01*
X108010000Y-60790000D02*
X107950000Y-60730000D01*
X107950000Y-60730000D02*
X107950000Y-55880000D01*
X105470000Y-63330000D02*
X108010000Y-60790000D01*
X98080000Y-63330000D02*
X105470000Y-63330000D01*
X90686453Y-70723547D02*
X98080000Y-63330000D01*
X76328481Y-70723547D02*
X90686453Y-70723547D01*
X118140000Y-62090000D02*
X118110000Y-62060000D01*
X118110000Y-62060000D02*
X118110000Y-55880000D01*
X115340000Y-64890000D02*
X118140000Y-62090000D01*
X99060000Y-64890000D02*
X115340000Y-64890000D01*
X90686453Y-73263547D02*
X99060000Y-64890000D01*
X76328481Y-73263547D02*
X90686453Y-73263547D01*
X116580000Y-66240000D02*
X120650000Y-62170000D01*
X120650000Y-62170000D02*
X120650000Y-55880000D01*
X99920000Y-66240000D02*
X116580000Y-66240000D01*
X90270000Y-75890000D02*
X99920000Y-66240000D01*
X77617015Y-75890000D02*
X90270000Y-75890000D01*
X76328481Y-75803547D02*
X77530562Y-75803547D01*
X77530562Y-75803547D02*
X77617015Y-75890000D01*
X83910000Y-51150000D02*
X119310000Y-51150000D01*
X78810000Y-51200000D02*
X80910000Y-51200000D01*
X92710000Y-81280000D02*
X92710000Y-78660000D01*
X92710000Y-78660000D02*
X93460000Y-78660000D01*
X93460000Y-78660000D02*
X99730000Y-72390000D01*
X76328481Y-76313547D02*
X76328481Y-75803547D01*
X95250000Y-81280000D02*
X95250000Y-81915000D01*
X95280000Y-82210000D02*
X94010000Y-83480000D01*
X93870000Y-83510000D02*
X80535000Y-83510000D01*
X125730000Y-83820000D02*
X125730000Y-89970000D01*
X125730000Y-89970000D02*
X122990000Y-92710000D01*
X129540000Y-85090000D02*
X127000000Y-85090000D01*
X127000000Y-85090000D02*
X125730000Y-83820000D01*
X135890000Y-85090000D02*
X135890000Y-87830000D01*
X135890000Y-87830000D02*
X140770000Y-92710000D01*
X115570000Y-86360000D02*
X107950000Y-86360000D01*
X105410000Y-88900000D02*
X105410000Y-92510000D01*
X107950000Y-86360000D02*
X105410000Y-88900000D01*
X105410000Y-92510000D02*
X105210000Y-92710000D01*
X78740000Y-85090000D02*
X79810000Y-85090000D01*
X79810000Y-85090000D02*
X87430000Y-92710000D01*
X135890000Y-85090000D02*
X138430000Y-85090000D01*
X138430000Y-85090000D02*
X140970000Y-82550000D01*
X121920000Y-83820000D02*
X118110000Y-83820000D01*
X118110000Y-83820000D02*
X115570000Y-86360000D01*
X140970000Y-68580000D02*
X140970000Y-82550000D01*
X102870000Y-68580000D02*
X132080000Y-68580000D01*
X102870000Y-95250000D02*
X102870000Y-95370000D01*
X102870000Y-95370000D02*
X105210000Y-97710000D01*
X120650000Y-95250000D02*
X120650000Y-95370000D01*
X120650000Y-95370000D02*
X122990000Y-97710000D01*
X87430000Y-97710000D02*
X87710000Y-97710000D01*
X87710000Y-97710000D02*
X90170000Y-95250000D01*
X101600000Y-95250000D02*
X102870000Y-95250000D01*
X102870000Y-95250000D02*
X120650000Y-95250000D01*
X120650000Y-95250000D02*
X138430000Y-95250000D01*
X138430000Y-95250000D02*
X140770000Y-97590000D01*
X140770000Y-97590000D02*
X140770000Y-97710000D01*
X130810000Y-62230000D02*
X132080000Y-62230000D01*
X129540000Y-60960000D02*
X130810000Y-62230000D01*
X129540000Y-58420000D02*
X129540000Y-60960000D01*
X127000000Y-58420000D02*
X129540000Y-58420000D01*
X125730000Y-57150000D02*
X127000000Y-58420000D01*
X125730000Y-55880000D02*
X125730000Y-57150000D01*
X102870000Y-76200000D02*
X102870000Y-81280000D01*
X100330000Y-76200000D02*
X101854000Y-74676000D01*
X100330000Y-81280000D02*
X100330000Y-76200000D01*
X127000000Y-80010000D02*
X133350000Y-80010000D01*
X133350000Y-80010000D02*
X135890000Y-77470000D01*
X116840000Y-80010000D02*
X127000000Y-80010000D01*
X127000000Y-80010000D02*
X129540000Y-77470000D01*
X124460000Y-53340000D02*
X130810000Y-53340000D01*
D25*
X124460000Y-53340000D02*
X130810000Y-53340000D01*
D24*
X130810000Y-53340000D02*
X133350000Y-50800000D01*
D25*
X130810000Y-53340000D02*
X133350000Y-50800000D01*
D24*
X133350000Y-50800000D02*
X133350000Y-49530000D01*
D25*
X133350000Y-50800000D02*
X133350000Y-49530000D01*
D24*
X123190000Y-55880000D02*
X123190000Y-54610000D01*
D25*
X123190000Y-54610000D02*
X124460000Y-53340000D01*
D24*
X123190000Y-54610000D02*
X124460000Y-53340000D01*
X135350000Y-49530000D02*
X135350000Y-55340000D01*
X135350000Y-55340000D02*
X134810000Y-55880000D01*
X134810000Y-55880000D02*
X125730000Y-55880000D01*
X105410000Y-81280000D02*
X105410000Y-82550000D01*
X97790000Y-85090000D02*
X86360000Y-85090000D01*
X99060000Y-83820000D02*
X97790000Y-85090000D01*
X104140000Y-83820000D02*
X99060000Y-83820000D01*
X105410000Y-82550000D02*
X104140000Y-83820000D01*
X105410000Y-81280000D02*
X105410000Y-78740000D01*
X105410000Y-78740000D02*
X106680000Y-77470000D01*
X106680000Y-77470000D02*
X114300000Y-77470000D01*
X114300000Y-77470000D02*
X116840000Y-80010000D01*
X116840000Y-76200000D02*
X119380000Y-78740000D01*
X119380000Y-78740000D02*
X124460000Y-78740000D01*
X124460000Y-78740000D02*
X125730000Y-77470000D01*
X125730000Y-77470000D02*
X125730000Y-76200000D01*
X97790000Y-81280000D02*
X97790000Y-76200000D01*
X97790000Y-76200000D02*
X100330000Y-73660000D01*
X100330000Y-73660000D02*
X120650000Y-73660000D01*
X120650000Y-73660000D02*
X121920000Y-74930000D01*
X121920000Y-74930000D02*
X121920000Y-76200000D01*
X139700000Y-49880000D02*
X139350000Y-49530000D01*
D25*
X125730000Y-77470000D02*
X125730000Y-76200000D01*
X124460000Y-78740000D02*
X125730000Y-77470000D01*
X119380000Y-78740000D02*
X124460000Y-78740000D01*
X116840000Y-76200000D02*
X119380000Y-78740000D01*
X120650000Y-73660000D02*
X121920000Y-74930000D01*
X97790000Y-76200000D02*
X100330000Y-73660000D01*
X100330000Y-73660000D02*
X120650000Y-73660000D01*
X121920000Y-74930000D02*
X121920000Y-76200000D01*
X114300000Y-77470000D02*
X116840000Y-80010000D01*
X106680000Y-77470000D02*
X114300000Y-77470000D01*
X105410000Y-78740000D02*
X106680000Y-77470000D01*
M02*
