G04 #@! TF.FileFunction,Soldermask,Top*
%FSLAX46Y46*%
G04 Gerber Fmt 4.6, Leading zero omitted, Abs format (unit mm)*
G04 Created by KiCad (PCBNEW 4.0.7) date 02/16/18 07:03:29*
%MOMM*%
%LPD*%
G01*
G04 APERTURE LIST*
%ADD10C,0.100000*%
%ADD11C,3.400000*%
%ADD12O,3.400000X2.000000*%
%ADD13O,4.400000X3.400000*%
%ADD14O,2.000000X3.400000*%
%ADD15R,1.750000X3.400000*%
%ADD16O,1.750000X3.400000*%
%ADD17R,2.100000X3.400000*%
%ADD18O,2.100000X3.400000*%
%ADD19R,3.400000X2.100000*%
%ADD20O,3.400000X2.100000*%
%ADD21R,4.400000X4.400000*%
%ADD22C,4.400000*%
G04 APERTURE END LIST*
D10*
D11*
X131220000Y-97450000D03*
X131220000Y-92950000D03*
X137720000Y-97450000D03*
X137720000Y-92950000D03*
X113510000Y-97480000D03*
X113510000Y-92980000D03*
X120010000Y-97480000D03*
X120010000Y-92980000D03*
X95690000Y-97480000D03*
X95690000Y-92980000D03*
X102190000Y-97480000D03*
X102190000Y-92980000D03*
D12*
X140970000Y-68580000D03*
X133350000Y-68580000D03*
D13*
X140770000Y-92710000D03*
X140770000Y-97710000D03*
X128270000Y-92710000D03*
X128270000Y-97710000D03*
X122990000Y-92710000D03*
X122990000Y-97710000D03*
X110490000Y-92710000D03*
X110490000Y-97710000D03*
X105210000Y-92710000D03*
X105210000Y-97710000D03*
X92710000Y-92710000D03*
X92710000Y-97710000D03*
D12*
X139700000Y-62230000D03*
X132080000Y-62230000D03*
X137160000Y-58420000D03*
X129540000Y-58420000D03*
X103770000Y-76450000D03*
X103770000Y-68830000D03*
D14*
X135890000Y-85090000D03*
X135890000Y-77470000D03*
D15*
X133350000Y-49530000D03*
D16*
X135350000Y-49530000D03*
X137350000Y-49530000D03*
X139350000Y-49530000D03*
X141350000Y-49530000D03*
D14*
X125730000Y-83820000D03*
X125730000Y-76200000D03*
X121920000Y-83820000D03*
X121920000Y-76200000D03*
D12*
X86360000Y-85090000D03*
X78740000Y-85090000D03*
D14*
X129540000Y-85090000D03*
X129540000Y-77470000D03*
D17*
X87630000Y-55880000D03*
D18*
X90170000Y-55880000D03*
X92710000Y-55880000D03*
X95250000Y-55880000D03*
X97790000Y-55880000D03*
X100330000Y-55880000D03*
X102870000Y-55880000D03*
X105410000Y-55880000D03*
X107950000Y-55880000D03*
X110490000Y-55880000D03*
X113030000Y-55880000D03*
X115570000Y-55880000D03*
X118110000Y-55880000D03*
X120650000Y-55880000D03*
X123190000Y-55880000D03*
X125730000Y-55880000D03*
D17*
X87630000Y-81280000D03*
D18*
X90170000Y-81280000D03*
X92710000Y-81280000D03*
X95250000Y-81280000D03*
X97790000Y-81280000D03*
X100330000Y-81280000D03*
X102870000Y-81280000D03*
X105410000Y-81280000D03*
X107950000Y-81280000D03*
X110490000Y-81280000D03*
D19*
X76328481Y-63103547D03*
D20*
X76328481Y-65643547D03*
X76328481Y-68183547D03*
X76328481Y-70723547D03*
X76328481Y-73263547D03*
X76328481Y-75803547D03*
D14*
X115570000Y-86360000D03*
X115570000Y-78740000D03*
D13*
X87430000Y-92710000D03*
X87430000Y-97710000D03*
X74930000Y-92710000D03*
X74930000Y-97710000D03*
D21*
X78810000Y-51200000D03*
D22*
X73730000Y-51200000D03*
D11*
X77960000Y-97540000D03*
X77960000Y-93040000D03*
X84460000Y-97540000D03*
X84460000Y-93040000D03*
M02*
